<?xml version="1.0" standalone="no"?><!DOCTYPE svg PUBLIC "-//W3C//DTD SVG 1.1//EN" "http://www.w3.org/Graphics/SVG/1.1/DTD/svg11.dtd"><svg t="1721267485965" class="icon" viewBox="0 0 1024 1024" version="1.1" xmlns="http://www.w3.org/2000/svg" p-id="1417" xmlns:xlink="http://www.w3.org/1999/xlink" width="200" height="200"><path d="M108.836571 953.417143a14.628571 14.628571 0 0 1-7.899428-26.916572c2.340571-1.536 237.494857-154.038857 327.460571-423.058285C457.581714 416.256 519.314286 319.634286 611.766857 216.210286a1487.213714 1487.213714 0 0 1 130.267429-129.316572 14.628571 14.628571 0 0 1 9.435428-3.510857 14.628571 14.628571 0 0 1 10.459429 4.388572 14.628571 14.628571 0 0 1 0.512 19.968c-2.998857 3.364571-296.082286 334.116571-318.756572 497.737142-23.917714 172.836571-186.002286 336.457143-192.877714 343.771429a14.628571 14.628571 0 0 1-10.313143 4.242286z" fill="#7DAE54" p-id="1418"></path><path d="M751.469714 98.011429S452.754286 433.517714 429.202286 603.428571s-188.781714 335.36-188.781715 335.36h-131.657142s240.713143-153.6 333.531428-430.738285c68.754286-205.604571 309.174857-410.038857 309.174857-410.038857m0-29.257143a29.257143 29.257143 0 0 0-19.090285 7.314285c-11.849143 10.166857-247.588571 212.918857-317.805715 422.912C326.290286 762.587429 95.085714 912.676571 93.037714 914.285714a29.257143 29.257143 0 0 0 15.725715 53.906286h131.657142a29.257143 29.257143 0 0 0 20.699429-8.557714 895.634286 895.634286 0 0 0 88.795429-107.739429c61.44-86.893714 97.865143-169.106286 108.251428-244.297143 8.996571-64.585143 65.828571-169.252571 164.278857-302.665143 73.142857-99.035429 144.530286-180.150857 150.528-186.88a29.257143 29.257143 0 0 0-21.430857-49.152z m0 58.514285z" fill="#333333" p-id="1419"></path><path d="M210.944 938.788571c30.427429-32.329143 150.893714-167.716571 178.688-310.272a925.476571 925.476571 0 0 1-280.868571 310.272z" fill="#5E7536" p-id="1420"></path><path d="M573.001143 474.185143a14.628571 14.628571 0 0 1-9.654857-3.657143 14.628571 14.628571 0 0 1-1.316572-20.626286c160.914286-182.857143 332.361143-71.021714 334.043429-69.851428a14.628571 14.628571 0 1 1-16.310857 24.283428c-6.290286-4.169143-152.429714-98.230857-295.789715 64.877715a14.628571 14.628571 0 0 1-10.971428 4.973714zM563.2 285.696a15.725714 15.725714 0 0 1-4.461714-0.658286 14.628571 14.628571 0 0 1-9.508572-18.432c28.745143-89.819429-33.572571-122.88-36.571428-124.342857a14.628571 14.628571 0 0 1 13.092571-26.112c0.877714 0.438857 87.771429 44.982857 51.2 159.305143a14.628571 14.628571 0 0 1-13.750857 10.24z" fill="#333333" p-id="1421"></path><path d="M555.300571 195.584a44.544 44.544 0 0 1-24.137142-7.314286c-17.846857-11.264-41.398857-47.908571-36.571429-77.458285 1.901714-11.264 9.728-31.158857 40.594286-38.4a74.532571 74.532571 0 0 1 16.018285-1.901715 44.544 44.544 0 0 1 40.521143 23.259429c14.189714 25.307429 8.704 64.073143-1.536 80.457143a43.885714 43.885714 0 0 1-26.550857 20.041143 40.886857 40.886857 0 0 1-8.338286 1.316571z" fill="#F7873C" p-id="1422"></path><path d="M551.424 85.211429c43.154286 0 37.595429 63.634286 26.550857 81.700571a29.257143 29.257143 0 0 1-17.408 13.458286 24.210286 24.210286 0 0 1-5.266286 0.585143 30.281143 30.281143 0 0 1-16.310857-4.973715c-19.529143-12.361143-56.978286-75.995429 0-89.234285a58.514286 58.514286 0 0 1 12.653715-1.536m0-29.257143a86.381714 86.381714 0 0 0-19.529143 2.56c-28.598857 6.656-47.469714 24.941714-51.785143 50.176-6.144 36.571429 20.845714 78.189714 43.008 92.233143a59.318857 59.318857 0 0 0 31.963428 9.508571 53.028571 53.028571 0 0 0 11.849143-1.389714 58.002286 58.002286 0 0 0 35.766857-26.624c11.776-19.309714 19.236571-64.438857 1.828572-95.524572a58.514286 58.514286 0 0 0-53.321143-30.72z" fill="#333333" p-id="1423"></path><path d="M560.566857 180.370286a27.648 27.648 0 0 0 10.313143-5.412572c2.194286-27.574857-7.314286-60.854857-46.738286-51.638857a52.077714 52.077714 0 0 0-14.628571 5.558857 83.309714 83.309714 0 0 0 29.257143 47.104 29.257143 29.257143 0 0 0 21.796571 4.388572z" fill="#E3661C" p-id="1424"></path><path d="M876.836571 460.8a18.066286 18.066286 0 0 1-6.509714-1.243429l-51.2-20.260571c-27.794286-11.044571-39.570286-47.469714-26.185143-81.334857 10.605714-26.697143 33.792-44.690286 57.782857-44.690286a45.933714 45.933714 0 0 1 16.896 3.218286l47.616 18.870857a22.308571 22.308571 0 0 1 12.361143 12.726857 37.595429 37.595429 0 0 1-13.677714 43.885714l-3.949714 2.779429v1.536a40.594286 40.594286 0 0 1-15.067429 39.497143 19.602286 19.602286 0 0 1-2.633143 16.384 18.724571 18.724571 0 0 1-15.433143 8.630857z" fill="#F7873C" p-id="1425"></path><path d="M850.578286 328.265143a31.305143 31.305143 0 0 1 11.483428 2.121143l47.689143 18.870857a8.484571 8.484571 0 0 1 4.242286 4.827428 23.332571 23.332571 0 0 1-8.630857 26.258286l-5.266286 3.657143a12.653714 12.653714 0 0 0-4.900571 12.434286l0.658285 3.218285a25.307429 25.307429 0 0 1-10.386285 25.307429 12.361143 12.361143 0 0 0-4.608 14.628571 5.339429 5.339429 0 0 1-4.022858 7.314286 2.925714 2.925714 0 0 1-1.097142 0l-51.2-20.333714c-20.260571-7.972571-28.306286-35.913143-17.92-62.244572 8.557714-21.577143 26.697143-35.401143 43.885714-35.401142m0-29.257143c-29.988571 0-58.514286 21.942857-71.387429 53.906285-16.603429 42.057143-1.462857 86.089143 34.377143 100.205715l51.2 20.333714a32.768 32.768 0 0 0 11.849143 2.267429 33.499429 33.499429 0 0 0 27.940571-15.433143 35.254857 35.254857 0 0 0 5.705143-18.578286 54.930286 54.930286 0 0 0 14.628572-40.228571 52.443429 52.443429 0 0 0 15.433143-58.514286 36.571429 36.571429 0 0 0-19.748572-21.796572l-47.689143-18.870857a60.635429 60.635429 0 0 0-21.942857-4.169143z" fill="#333333" p-id="1426"></path><path d="M878.153143 405.723429l5.266286-3.657143a23.332571 23.332571 0 0 0 8.923428-26.038857 8.484571 8.484571 0 0 0-4.242286-4.827429l-47.689142-18.870857a35.035429 35.035429 0 0 0-29.257143 2.633143 68.461714 68.461714 0 0 0-4.242286 8.704c-10.386286 26.331429-2.340571 54.272 17.92 62.244571l43.300571 17.115429a25.453714 25.453714 0 0 0 6.290286-21.942857l-0.658286-3.218286a12.653714 12.653714 0 0 1 4.388572-12.141714z" fill="#E3661C" p-id="1427"></path><path d="M492.470857 696.758857a89.892571 89.892571 0 0 1-72.265143-36.571428l-26.477714-30.573715a9.289143 9.289143 0 0 0-13.750857 0l-28.379429 30.939429A89.6 89.6 0 0 1 226.742857 679.570286l-22.747428-16.676572a90.550857 90.550857 0 0 1-23.917715-119.808 82.505143 82.505143 0 0 1-31.524571-93.037714l11.190857-34.669714a89.6 89.6 0 0 1 113.005714-57.856l9.362286 3.072a90.038857 90.038857 0 0 1 89.673143-87.771429h28.379428A89.892571 89.892571 0 0 1 490.057143 360.594286l9.435428-3.072a88.429714 88.429714 0 0 1 27.574858-4.388572 89.6 89.6 0 0 1 85.138285 62.244572l11.190857 34.669714a82.651429 82.651429 0 0 1-31.597714 93.037714 90.477714 90.477714 0 0 1-23.844571 119.808l-22.820572 16.676572a88.941714 88.941714 0 0 1-52.662857 17.188571z" fill="#F7873C" p-id="1428"></path><path d="M400.164571 287.158857A75.410286 75.410286 0 0 1 475.428571 362.569143v7.314286a7.899429 7.899429 0 0 0 7.314286 7.899428 7.314286 7.314286 0 0 0 2.413714 0l18.285715-5.997714a73.947429 73.947429 0 0 1 23.04-3.657143 75.264 75.264 0 0 1 71.460571 52.150857l11.190857 34.596572a67.876571 67.876571 0 0 1-31.158857 79.798857 7.753143 7.753143 0 0 0-2.267428 11.337143A76.068571 76.068571 0 0 1 559.323429 650.971429l-22.820572 16.603428A74.898286 74.898286 0 0 1 431.542857 650.971429l-26.843428-31.012572a23.990857 23.990857 0 0 0-35.620572-0.512L340.260571 650.971429a74.898286 74.898286 0 0 1-104.886857 16.603428L212.626286 650.971429a75.995429 75.995429 0 0 1-16.676572-105.325715 7.826286 7.826286 0 0 0-2.340571-11.337143 67.949714 67.949714 0 0 1-31.158857-79.798857l11.190857-34.596571a74.971429 74.971429 0 0 1 94.573714-48.493714l18.285714 5.997714a7.314286 7.314286 0 0 0 2.413715 0.438857 7.826286 7.826286 0 0 0 7.826285-7.826286v-7.314285a75.410286 75.410286 0 0 1 75.044572-75.556572h28.379428m0-29.257143h-28.379428a104.594286 104.594286 0 0 0-102.4 83.529143 105.325714 105.325714 0 0 0-24.429714-2.925714 104.155429 104.155429 0 0 0-99.328 72.411428l-11.190858 34.596572a97.28 97.28 0 0 0 26.916572 101.449143 105.179429 105.179429 0 0 0 33.792 127.780571l22.747428 16.603429a103.277714 103.277714 0 0 0 61.293715 20.041143 104.594286 104.594286 0 0 0 83.456-41.618286L386.633143 643.657143l21.942857 25.526857a104.813714 104.813714 0 0 0 83.748571 41.984 103.277714 103.277714 0 0 0 61.293715-20.041143l22.820571-16.603428a105.398857 105.398857 0 0 0 33.792-127.780572 97.28 97.28 0 0 0 26.916572-101.449143l-11.044572-34.377143a104.155429 104.155429 0 0 0-99.474286-72.411428 106.422857 106.422857 0 0 0-24.502857 2.925714 104.521143 104.521143 0 0 0-102.4-83.529143z" fill="#333333" p-id="1429"></path><path d="M527.798857 530.212571a56.758857 56.758857 0 0 1-12.434286 78.701715L498.249143 621.714286a55.954286 55.954286 0 0 1-78.189714-12.434286l-20.992-26.916571a16.237714 16.237714 0 0 0-25.6 0l-21.942858 27.062857A56.027429 56.027429 0 0 1 273.627429 621.714286l-17.042286-12.434286a56.758857 56.758857 0 0 1-12.507429-78.701714 5.778286 5.778286 0 0 0-1.682285-8.484572A50.761143 50.761143 0 0 1 219.428571 462.189714l8.338286-25.892571a56.100571 56.100571 0 0 1 70.582857-36.132572l13.677715 4.461715a5.851429 5.851429 0 0 0 7.314285-5.558857v-5.485715a56.32 56.32 0 0 1 56.027429-56.32h21.211428a56.246857 56.246857 0 0 1 55.954286 56.32v5.485715a5.851429 5.851429 0 0 0 7.68 5.558857l13.604572-4.461715a56.100571 56.100571 0 0 1 70.582857 36.132572l8.338285 25.892571a50.541714 50.541714 0 0 1-23.259428 59.538286 5.778286 5.778286 0 0 0-1.682286 8.484571z" fill="#E3661C" p-id="1430"></path><path d="M454.070857 506.514286a27.209143 27.209143 0 0 1-5.997714 37.741714l33.718857 50.761143-41.910857-44.763429a26.916571 26.916571 0 0 1-37.595429-5.924571L389.339429 526.628571l-1.024-1.389714c-0.512-0.877714-1.609143 33.572571-1.609143 33.572572s-2.56-34.450286-3.145143-33.572572l-0.950857 1.389714-13.019429 18.066286a26.843429 26.843429 0 0 1-37.522286 5.924572l-40.448 37.449142 32.182858-43.446857a27.209143 27.209143 0 0 1-5.924572-37.741714c0.438857-0.585143-40.886857 0.731429-40.886857 0.731429s40.813714-4.388571 40.082286-4.827429a24.283429 24.283429 0 0 1-11.190857-28.598857l-65.828572-17.773714 69.485714 5.412571A26.916571 26.916571 0 0 1 343.771429 444.123429l6.509714 2.121142c0.950857 0-14.628571-26.770286-14.628572-26.770285s18.505143 25.014857 18.505143 24.064v-2.633143a26.989714 26.989714 0 0 1 26.843429-26.989714l5.851428-60.269715 4.315429 60.269715a27.062857 27.062857 0 0 1 26.916571 26.989714v2.633143c0 0.950857 19.968-16.749714 19.968-16.749715s-17.261714 19.748571-16.310857 19.456l6.582857-2.121142a26.916571 26.916571 0 0 1 33.865143 17.334857l85.577143-12.726857-81.773714 25.088a24.210286 24.210286 0 0 1-11.117714 28.598857c-0.731429 0.438857 26.916571 4.827429 26.916571 4.827428s-28.306286-1.462857-27.721143-0.731428z" fill="#C15C17" p-id="1431"></path><path d="M406.747429 492.397714a9.142857 9.142857 0 0 1-1.974858 12.288l11.190858 16.896-13.970286-14.628571a8.923429 8.923429 0 0 1-12.507429-2.267429l-4.315428-5.997714v-0.512l-0.512 11.264s-0.877714-11.556571-1.024-11.264v0.512l-4.315429 5.997714a8.923429 8.923429 0 0 1-12.507428 1.974857L352.621714 519.314286l10.678857-14.628572a9.142857 9.142857 0 0 1-1.974857-12.580571h-13.604571s13.604571-1.462857 13.385143-1.609143a7.972571 7.972571 0 0 1-3.730286-9.508571l-21.942857-5.924572 23.186286 1.755429a8.996571 8.996571 0 0 1 11.264-5.778286l2.194285 0.731429-4.900571-8.923429s6.144 8.338286 6.144 8.045714v-0.877714a8.996571 8.996571 0 0 1 8.923428-8.996571l1.974858-20.114286 1.462857 20.114286a8.996571 8.996571 0 0 1 9.289143 9.508571v0.877714l6.656-5.558857s-5.705143 6.582857-5.412572 6.436572l2.194286-0.731429a8.996571 8.996571 0 0 1 11.264 5.778286l28.525714-4.169143-27.209143 8.338286a8.045714 8.045714 0 0 1-3.657143 9.508571l8.923429 1.609143s-9.654857-0.438857-9.508571-0.219429z" fill="#FAFB6D" p-id="1432"></path><path d="M551.936 426.349714a36.571429 36.571429 0 0 0-37.668571 35.401143 36.571429 36.571429 0 1 0 37.668571-35.401143M477.769143 485.814857a21.942857 21.942857 0 0 0-15.652572 5.924572 22.601143 22.601143 0 0 0-7.314285 15.36 21.942857 21.942857 0 1 0 43.885714 1.316571 21.942857 21.942857 0 0 0-5.924571-15.652571 21.942857 21.942857 0 0 0-15.36-7.314286" fill="#F8FFE6" p-id="1433"></path></svg>