<?xml version="1.0" standalone="no"?><!DOCTYPE svg PUBLIC "-//W3C//DTD SVG 1.1//EN" "http://www.w3.org/Graphics/SVG/1.1/DTD/svg11.dtd"><svg t="1721289625625" class="icon" viewBox="0 0 1024 1024" version="1.1" xmlns="http://www.w3.org/2000/svg" p-id="24360" xmlns:xlink="http://www.w3.org/1999/xlink" width="200" height="200"><path d="M907.869298 805.423787C902.521742 803.958329 892.973511 801.974044 883.871289 798.738204 840.358116 783.282631 794.278116 815.67744 795.452302 861.607253 795.661653 869.822009 797.782471 878.318933 800.654222 886.078578 813.2608 920.107236 801.782898 952.793316 770.052551 970.715591 733.288676 991.47776 694.504107 1007.438507 653.858133 1018.852693 619.347058 1028.542009 587.580302 1013.26848 572.770987 979.940693 556.305067 942.880996 513.752178 928.403911 479.136427 948.201244 465.833529 955.810702 456.808676 967.102009 450.691982 981.137636 438.718009 1008.594489 412.544569 1024.910222 383.617707 1021.246578 369.586631 1019.467093 355.837724 1014.560996 342.279964 1010.091804 311.782969 1000.0384 282.628551 986.80832 254.611911 971.097884 222.189796 952.916196 210.693689 920.380302 223.773582 885.509689 233.845191 858.667236 229.266773 834.06848 208.864142 813.888853 188.857458 794.100622 164.527218 789.840782 138.262756 799.584711 102.786844 812.751076 70.674204 801.400604 52.210347 768.527929 31.753102 732.109938 16.074524 693.721316 4.664889 653.55776-5.033529 619.410773 10.080711 586.934044 42.675769 572.639004 63.433387 563.536782 77.182293 548.431644 82.261333 526.281387 89.552213 494.478222 73.991964 464.145067 43.795342 450.892231 23.861476 442.144996 10.235449 427.99104 4.146062 406.914844 0.77824 395.264 0.851058 383.5904 4.036836 371.9168 15.341796 330.510791 31.571058 291.120924 52.569884 253.697138 70.505813 221.734684 103.369387 209.96096 137.680213 223.118222 178.185102 238.651164 220.219164 215.303964 227.837724 172.823893 230.008604 160.717938 228.320142 148.866844 223.8464 137.347982 210.393316 102.709476 222.189796 70.078009 254.64832 51.818951 291.653404 30.997618 330.679182 15.041422 371.561813 3.663644 404.375324-5.470436 436.71552 10.080711 450.719289 41.815609 460.645262 64.311751 477.138489 78.638649 501.577956 82.447929 532.72576 87.299413 560.000569 71.971271 572.74368 42.935182 582.059804 21.7088 597.378844 7.177102 620.252729 3.021938 630.647467 1.133227 642.289209 1.374436 652.488249 4.018631 693.785031 14.722844 732.89728 31.21152 770.061653 52.219449 801.741938 70.128071 813.497458 102.927929 800.467627 136.792747 783.997156 179.605049 810.088676 223.154631 855.722667 227.569209 865.302756 228.497636 875.861333 226.599822 885.02272 223.336676 921.954987 210.188516 953.439573 221.315982 972.481422 255.499378 992.242347 290.975289 1007.579591 328.285298 1018.802631 367.315627 1029.302044 403.833742 1014.811307 435.291022 980.177351 450.842169 938.197902 469.692871 926.365013 522.148978 957.180587 555.422151 963.62496 562.3808 972.212907 568.096996 980.864569 572.142933 1014.424462 587.826062 1029.151858 619.114951 1018.957369 654.904889 1007.324729 695.737458 991.27296 734.717724 970.073884 771.504356 957.312569 793.659164 937.665422 804.463502 907.869298 805.423787L907.869298 805.423787ZM956.329529 388.801422C946.590151 353.047893 932.513564 319.20128 914.664107 286.861084 912.415858 282.78784 909.9264 284.735716 907.254898 285.696 882.446791 294.629831 857.160818 296.614116 831.437938 290.492871 753.978027 272.051769 710.656 192.015929 737.707804 117.072782 739.61472 111.784391 738.636231 109.449671 733.761991 107.246933 714.105742 98.367716 694.790827 88.696604 674.916124 80.358969 661.849884 74.87488 648.037262 71.170276 634.898204 66.787556 609.543964 119.057067 569.739947 148.885049 512.077369 148.903253 454.173582 148.921458 414.22848 118.934187 389.3248 67.156196 352.506311 77.255111 317.658453 91.70944 284.612836 110.560142 303.47264 164.836693 296.582258 214.325476 255.517582 255.217209 214.543929 296.013369 165.100658 303.158613 111.065316 284.039396 92.210062 317.44 77.637404 352.224142 67.743289 388.769564 119.202702 413.618631 149.067093 453.104071 149.417529 510.507236 149.772516 568.788764 119.844409 608.943218 67.715982 634.156373 77.814898 670.970311 92.32384 705.995662 111.16544 738.913849 163.580587 720.504604 211.644871 726.443804 252.163413 764.418276 295.967858 805.473849 303.982364 856.127716 284.658347 912.384 317.863253 931.193742 352.752071 945.916587 389.388516 955.665067 414.63808 903.709582 454.455751 873.990827 512.136533 874.031787 570.104036 874.072747 609.926258 904.214756 634.784427 955.751538 671.593813 945.607111 706.459876 931.198293 739.455431 912.320284 720.40448 858.03008 727.604338 808.787058 768.227556 767.990898 809.096533 726.944427 858.576213 719.967573 912.952889 738.859236 931.84 705.722596 946.371698 670.751858 956.29312 634.133618 903.887076 608.688356 874.095502 568.411022 874.600676 510.152249 875.092196 453.076764 904.815502 413.700551 956.329529 388.801422L956.329529 388.801422ZM512.077369 280.580551C541.118009 280.962844 569.039076 286.592569 595.995307 297.12384 614.040462 304.173511 622.573796 322.441671 616.111218 339.776853 609.56672 357.330489 590.829796 365.654471 572.393244 358.463716 485.157547 324.453262 391.563947 368.508018 358.896071 450.996907 319.606329 550.206578 384.814649 661.180871 490.300302 674.724978 583.315911 686.667093 667.27936 619.747556 675.976533 526.481636 678.402276 500.485689 674.301724 475.318044 664.949191 450.883129 658.158933 433.142898 665.609102 415.216071 682.015858 408.052622 699.232711 400.529636 718.565831 408.439467 725.847609 426.461867 740.452124 462.597689 746.227484 500.217173 740.570453 538.792391 726.716871 633.32352 674.624853 698.427164 584.594773 729.725156 449.991111 776.515129 304.901689 686.557867 284.194133 545.564444 265.621049 419.098169 352.888604 301.429191 478.785991 283.415893 489.795129 281.836658 500.977209 281.495324 512.077369 280.580551L512.077369 280.580551Z" fill="" p-id="24361"></path></svg>