<?xml version="1.0" standalone="no"?><!DOCTYPE svg PUBLIC "-//W3C//DTD SVG 1.1//EN" "http://www.w3.org/Graphics/SVG/1.1/DTD/svg11.dtd"><svg t="1721289683520" class="icon" viewBox="0 0 1024 1024" version="1.1" xmlns="http://www.w3.org/2000/svg" p-id="29845" xmlns:xlink="http://www.w3.org/1999/xlink" width="200" height="200"><path d="M691.2 928.2V543.1c0-32.7 26.5-59.3 59.2-59.3h118.5c32.7 0 59.3 26.5 59.3 59.2V928.2h-237z m192.6-385.1c0-8.2-6.6-14.8-14.8-14.8H750.5c-8.2 0-14.8 6.6-14.9 14.7v340.8h148.2V543.1zM395 157.8c-0.1-32.6 26.3-59.2 58.9-59.3h118.8c32.6 0 59.1 26.5 59.1 59.1v770.6H395V157.8z m44.4 725.9h148V157.9c0-8.1-6.5-14.7-14.7-14.8H454.1c-8.1 0.1-14.7 6.7-14.7 14.8v725.8zM98.6 394.9c0-32.7 26.5-59.2 59.2-59.3h118.5c32.7-0.1 59.3 26.4 59.3 59.1v533.5h-237V394.9z m44.5 488.8h148.2V394.9c0-8.2-6.7-14.8-14.8-14.8H158c-8.2 0-14.8 6.6-14.9 14.7v488.9z" p-id="29846"></path></svg>