<?xml version="1.0" standalone="no"?><!DOCTYPE svg PUBLIC "-//W3C//DTD SVG 1.1//EN" "http://www.w3.org/Graphics/SVG/1.1/DTD/svg11.dtd"><svg height="1024" node-id="1" sillyvg="true" template-height="1024" template-width="1024" version="1.1" viewBox="0 0 1024 1024" width="1024" xmlns="http://www.w3.org/2000/svg" xmlns:xlink="http://www.w3.org/1999/xlink"><defs node-id="35"></defs><path d="M 0.00 0.00 L 1024.00 0.00 L 1024.00 1024.00 L 0.00 1024.00 Z" fill="#ffffff" fill-rule="nonzero" node-id="37" stroke="none" target-height="1024" target-width="1024" target-x="0" target-y="0"></path><path d="M 296.20 167.60 L 302.60 165.10 L 309.10 163.00 L 315.70 161.30 L 322.40 160.00 L 329.20 159.10 L 336.00 158.70 L 342.80 158.70 L 349.60 159.10 L 356.40 160.00 L 363.10 161.30 L 369.60 163.20 L 383.70 168.30 L 391.00 171.70 L 398.00 175.50 L 404.80 179.70 L 417.80 188.90 L 427.30 196.30 L 455.40 219.00 L 493.30 250.30 L 518.00 271.80 L 529.90 283.10 L 539.40 281.40 L 551.40 277.90 L 558.80 276.10 L 566.20 274.90 L 581.30 273.50 L 588.90 273.40 L 600.20 273.60 L 611.60 274.40 L 634.20 277.00 L 643.20 279.00 L 651.90 281.50 L 660.50 284.60 L 668.80 288.30 L 676.90 292.50 L 684.80 297.10 L 692.40 302.20 L 699.80 307.70 L 706.80 313.50 L 713.70 319.70 L 726.40 332.70 L 729.90 337.00 L 732.80 341.50 L 735.20 346.30 L 739.00 356.30 L 746.70 385.20 L 750.70 396.10 L 750.10 399.80 L 747.40 406.50 L 747.10 409.60 L 747.60 411.40 L 755.20 414.70 L 759.10 407.80 L 762.60 411.80 L 765.70 416.10 L 768.30 420.60 L 770.60 425.30 L 772.40 430.20 L 773.70 435.30 L 774.50 440.40 L 774.80 445.70 L 774.10 457.80 L 773.30 464.40 L 772.00 471.00 L 770.40 477.40 L 767.50 485.80 L 764.10 493.90 L 760.00 501.90 L 755.50 509.60 L 750.60 517.10 L 745.20 524.30 L 733.60 537.90 L 727.50 544.20 L 713.70 556.50 L 706.50 562.30 L 694.00 571.30 L 683.40 577.30 L 677.80 579.90 L 672.10 582.00 L 666.10 583.90 L 651.80 587.50 L 608.70 596.90 L 610.20 602.10 L 622.40 601.80 L 628.50 601.30 L 647.60 598.50 L 660.50 595.90 L 677.40 591.60 L 701.50 584.00 L 717.70 580.20 L 733.50 579.40 L 734.80 583.50 L 735.80 587.60 L 736.60 596.20 L 724.90 601.00 L 724.40 603.70 L 724.70 604.60 L 725.80 605.60 L 727.50 606.50 L 733.20 608.30 L 734.60 609.20 L 734.00 611.40 L 732.10 614.90 L 730.10 617.10 L 723.00 623.00 L 720.70 625.10 L 718.70 627.50 L 726.40 629.00 L 722.50 633.50 L 718.20 637.50 L 713.60 641.20 L 708.60 644.50 L 703.50 647.40 L 698.10 650.00 L 692.50 652.20 L 681.30 655.40 L 655.60 659.10 L 642.80 660.00 L 633.10 659.90 L 575.50 656.80 L 566.30 655.70 L 538.90 651.30 L 529.70 650.50 L 531.90 656.40 L 535.50 661.30 L 540.10 665.30 L 545.50 668.30 L 577.90 680.90 L 592.80 686.10 L 607.90 690.80 L 618.00 693.50 L 628.30 695.80 L 638.70 697.60 L 633.70 713.90 L 630.90 722.00 L 627.70 729.90 L 622.40 739.90 L 612.70 753.90 L 610.90 757.10 L 609.90 759.40 L 609.40 761.80 L 609.20 764.40 L 612.10 763.70 L 614.70 762.70 L 617.00 761.30 L 620.30 758.70 L 631.50 747.50 L 636.30 744.60 L 640.50 744.40 L 648.70 745.20 L 652.70 746.30 L 656.40 747.90 L 660.00 750.20 L 657.80 756.00 L 655.20 761.60 L 652.30 766.90 L 645.30 777.00 L 635.30 788.70 L 628.90 795.40 L 615.60 808.20 L 611.70 811.60 L 607.40 814.50 L 598.10 819.30 L 598.00 815.40 L 598.90 807.80 L 603.40 791.20 L 605.20 781.90 L 605.00 774.20 L 603.00 754.50 L 579.60 763.50 L 567.80 767.70 L 555.80 771.30 L 547.80 773.40 L 539.60 775.00 L 521.10 777.60 L 510.80 778.40 L 500.50 778.70 L 492.70 778.50 L 477.30 777.00 L 469.70 775.70 L 462.20 774.00 L 454.80 771.80 L 447.50 769.20 L 440.40 766.10 L 434.30 762.90 L 428.50 759.20 L 423.10 755.10 L 418.00 750.50 L 413.40 745.50 L 409.20 740.10 L 405.40 734.30 L 402.20 728.40 L 399.40 722.10 L 397.20 715.60 L 395.60 709.00 L 394.60 702.20 L 393.40 690.20 L 392.90 678.00 L 392.90 669.80 L 393.40 661.80 L 394.30 653.70 L 395.80 645.80 L 397.80 638.00 L 400.50 630.30 L 402.40 626.10 L 407.10 618.20 L 409.90 614.50 L 416.30 607.90 L 423.70 602.50 L 427.80 600.30 L 432.00 598.50 L 436.30 597.10 L 440.90 596.00 L 445.80 595.00 L 450.60 594.50 L 455.40 594.50 L 462.60 595.20 L 491.40 601.40 L 498.60 602.30 L 513.30 603.10 L 528.00 603.40 L 542.60 603.20 L 557.30 602.50 L 558.20 597.00 L 528.10 589.00 L 518.30 585.70 L 511.90 583.10 L 505.70 580.20 L 499.60 576.80 L 492.50 572.20 L 485.70 567.20 L 479.30 561.80 L 473.20 556.00 L 467.50 549.80 L 462.10 543.30 L 457.20 536.60 L 452.60 529.50 L 448.40 522.10 L 444.70 514.60 L 441.40 506.80 L 438.50 498.90 L 436.10 490.80 L 434.10 482.60 L 432.60 474.40 L 431.60 466.00 L 431.10 457.60 L 431.20 449.20 L 431.70 440.80 L 433.90 422.70 L 435.50 413.10 L 437.50 403.60 L 440.10 394.30 L 443.20 385.00 L 446.70 375.90 L 450.60 367.10 L 456.00 356.40 L 461.90 348.70 L 462.70 346.70 L 462.80 343.80 L 462.30 342.30 L 458.70 339.50 L 454.80 337.30 L 446.30 334.20 L 437.60 331.70 L 429.90 328.40 L 407.50 316.90 L 400.00 313.30 L 392.20 310.10 L 403.40 301.10 L 460.60 326.30 L 468.20 328.90 L 470.10 329.20 L 471.90 329.00 L 474.00 327.80 L 479.50 321.10 L 489.60 310.70 L 505.80 296.40 L 505.00 292.00 L 500.30 288.20 L 490.30 281.40 L 482.40 277.10 L 474.20 273.10 L 449.30 262.00 L 441.20 258.00 L 435.00 253.30 L 422.00 244.70 L 395.00 228.90 L 382.80 223.40 L 372.60 220.20 L 362.20 218.30 L 356.80 217.90 L 349.70 218.00 L 342.70 218.70 L 335.80 219.70 L 325.50 222.00 L 315.30 224.70 L 295.10 230.90 L 287.20 232.90 L 279.10 234.10 L 273.80 233.90 L 271.10 233.30 L 268.20 230.70 L 265.70 227.70 L 261.90 220.80 L 258.80 213.60 L 256.60 190.30 L 261.90 184.60 L 264.90 182.30 L 269.70 179.20 L 280.10 174.20 L 296.20 167.60 Z M 600.80 406.40 L 598.30 409.50 L 597.10 413.30 L 596.90 417.20 L 597.30 419.20 L 599.00 422.80 L 595.10 425.60 L 591.00 427.90 L 568.90 436.80 L 559.80 441.90 L 554.90 445.20 L 550.40 448.90 L 546.30 453.10 L 541.80 459.30 L 540.10 462.70 L 538.90 466.30 L 538.10 470.00 L 537.80 474.00 L 538.30 476.90 L 540.20 481.90 L 541.70 484.10 L 544.00 486.90 L 546.70 489.30 L 549.80 491.40 L 556.50 494.70 L 559.90 495.80 L 566.10 497.10 L 572.40 497.80 L 578.60 497.80 L 591.20 496.60 L 597.40 495.40 L 615.80 490.60 L 622.70 488.10 L 629.70 485.10 L 634.20 482.80 L 638.40 480.20 L 642.40 477.30 L 647.70 472.10 L 649.90 469.20 L 651.90 465.90 L 654.20 459.30 L 655.10 452.00 L 654.40 444.90 L 653.50 441.40 L 652.20 438.10 L 650.50 435.00 L 648.30 432.20 L 645.80 429.80 L 642.70 427.70 L 636.20 425.20 L 627.70 423.80 L 606.60 423.50 L 601.50 423.00 L 603.60 419.60 L 605.90 416.50 L 608.50 413.80 L 611.40 411.30 L 617.80 407.30 L 624.80 404.60 L 632.40 403.30 L 640.20 403.50 L 644.90 405.40 L 649.40 407.70 L 652.20 409.60 L 654.70 411.80 L 657.10 414.40 L 661.90 414.60 L 662.20 412.10 L 662.00 409.80 L 660.50 405.80 L 657.70 402.30 L 655.10 400.20 L 648.90 396.90 L 645.80 395.80 L 640.60 394.70 L 635.30 394.20 L 629.80 394.20 L 624.50 394.80 L 619.20 395.90 L 614.20 397.70 L 607.10 401.40 L 600.80 406.40 Z M 705.40 423.50 L 705.70 425.80 L 707.40 429.80 L 709.40 432.50 L 716.50 440.00 L 718.80 443.50 L 719.40 445.30 L 719.70 447.20 L 719.50 449.30 L 718.70 451.70 L 716.30 454.10 L 713.70 455.90 L 710.90 457.10 L 704.70 458.30 L 701.40 458.30 L 696.50 457.90 L 691.50 456.90 L 682.30 454.40 L 675.00 471.20 L 674.40 471.10 L 659.40 499.60 L 654.30 511.10 L 652.30 517.00 L 651.20 521.00 L 650.40 529.10 L 650.70 533.10 L 651.60 537.10 L 653.10 541.10 L 655.80 543.30 L 658.50 545.00 L 661.40 546.10 L 667.60 547.20 L 670.80 547.20 L 675.60 546.60 L 680.30 545.30 L 684.90 543.50 L 689.20 541.30 L 695.00 537.60 L 700.60 533.50 L 706.00 529.20 L 711.10 524.40 L 717.50 517.70 L 723.40 510.60 L 728.80 503.20 L 732.20 498.50 L 735.00 493.50 L 739.80 483.10 L 746.40 467.20 L 750.00 459.60 L 750.70 457.00 L 751.40 451.70 L 748.20 454.20 L 744.80 456.30 L 742.40 457.40 L 737.40 458.70 L 732.10 458.70 L 727.60 457.50 L 726.30 456.70 L 725.40 455.70 L 724.60 453.80 L 724.30 449.00 L 725.20 442.00 L 729.70 441.10 L 731.90 440.20 L 734.00 439.00 L 737.50 436.00 L 739.00 434.10 L 740.80 430.00 L 741.20 427.80 L 741.20 425.40 L 740.70 423.00 L 729.00 423.90 L 705.40 423.50 Z" fill="#fdfdfd" fill-rule="nonzero" node-id="39" stroke="none" target-height="660.6" target-width="518.19995" target-x="256.6" target-y="158.7"></path><path d="M 423.80 76.30 L 431.60 74.90 L 455.00 72.00 L 464.40 72.50 L 476.00 74.70 L 482.80 76.60 L 496.10 81.30 L 507.80 86.00 L 519.40 91.20 L 527.00 95.00 L 534.30 99.10 L 541.40 103.70 L 551.40 111.30 L 560.40 120.30 L 577.70 140.80 L 594.40 161.80 L 610.70 183.10 L 626.60 204.80 L 642.00 226.70 L 660.00 253.10 L 664.70 257.00 L 667.90 258.90 L 681.50 265.40 L 699.20 275.80 L 707.80 281.40 L 716.20 287.50 L 724.20 293.90 L 731.90 300.70 L 737.40 306.00 L 747.60 317.50 L 752.40 323.60 L 755.90 328.80 L 758.90 334.20 L 761.50 339.80 L 763.60 345.60 L 765.30 351.60 L 766.70 357.70 L 767.60 363.80 L 768.50 376.20 L 783.60 396.20 L 791.40 407.70 L 796.40 417.60 L 798.50 424.30 L 800.10 431.10 L 801.00 437.90 L 801.40 451.80 L 801.10 458.80 L 800.10 469.30 L 798.60 479.60 L 796.70 486.90 L 794.30 493.90 L 791.40 500.70 L 788.10 507.30 L 780.50 519.90 L 774.00 529.00 L 767.20 537.80 L 752.90 554.90 L 759.70 579.30 L 760.20 582.90 L 760.50 592.80 L 759.70 605.50 L 758.60 611.70 L 757.10 617.80 L 755.00 623.80 L 753.10 628.10 L 750.90 632.20 L 748.20 636.10 L 740.30 645.30 L 735.10 650.30 L 729.50 654.70 L 723.70 658.80 L 717.60 662.60 L 711.20 666.00 L 701.40 670.50 L 691.30 674.50 L 670.80 681.30 L 667.60 687.10 L 667.70 691.70 L 667.20 696.40 L 663.90 714.70 L 663.80 720.80 L 664.20 723.80 L 669.40 727.10 L 677.80 733.60 L 683.40 739.80 L 685.60 743.30 L 687.20 747.10 L 689.30 755.60 L 689.90 759.90 L 690.10 764.20 L 689.80 768.60 L 688.80 774.30 L 687.30 779.90 L 685.20 785.40 L 682.60 790.70 L 679.60 795.70 L 671.30 806.80 L 660.60 819.00 L 649.00 830.40 L 642.70 835.60 L 636.30 840.50 L 629.50 845.00 L 622.50 849.10 L 615.30 852.70 L 607.80 855.80 L 600.10 858.40 L 595.10 859.20 L 590.10 859.50 L 580.20 859.00 L 570.30 857.10 L 563.00 855.00 L 556.00 852.50 L 551.40 850.30 L 547.10 847.60 L 543.10 844.60 L 524.00 828.10 L 504.20 830.10 L 494.20 830.60 L 484.20 830.70 L 474.30 830.30 L 464.40 829.40 L 449.70 826.80 L 442.50 825.00 L 427.20 820.10 L 419.50 816.90 L 412.00 813.30 L 404.70 809.10 L 397.70 804.40 L 391.00 799.40 L 384.70 793.90 L 378.60 788.10 L 372.80 781.90 L 367.50 775.40 L 362.50 768.70 L 352.90 754.60 L 349.40 751.50 L 347.70 750.80 L 326.80 745.70 L 314.50 741.80 L 308.60 739.30 L 302.80 736.50 L 297.30 733.20 L 292.10 729.30 L 285.20 722.80 L 279.50 715.50 L 276.40 710.10 L 273.70 704.50 L 271.60 698.60 L 270.00 692.60 L 268.90 686.50 L 268.40 680.20 L 268.30 674.00 L 268.80 667.80 L 269.90 661.60 L 271.40 655.50 L 273.50 649.70 L 278.00 640.30 L 284.00 629.20 L 285.70 624.00 L 286.10 621.20 L 283.80 615.80 L 282.80 608.60 L 282.80 595.30 L 283.20 589.50 L 284.10 583.90 L 285.50 578.50 L 287.50 573.20 L 290.00 568.10 L 292.90 563.20 L 296.20 558.50 L 303.60 549.80 L 307.70 545.80 L 316.50 538.60 L 321.30 535.60 L 326.40 533.10 L 331.80 531.00 L 337.30 529.50 L 342.90 528.40 L 348.60 527.90 L 354.40 527.90 L 360.00 528.50 L 369.70 530.60 L 384.80 536.80 L 388.70 538.10 L 373.40 498.80 L 371.70 493.00 L 368.80 481.00 L 367.10 468.50 L 366.70 459.10 L 366.80 449.70 L 367.90 430.80 L 370.20 420.70 L 373.00 410.80 L 376.20 401.00 L 379.90 391.40 L 384.10 381.90 L 391.30 367.80 L 399.40 353.60 L 402.10 346.90 L 403.00 343.40 L 389.80 338.30 L 376.80 332.90 L 363.90 327.00 L 283.70 288.40 L 263.30 277.90 L 253.30 272.20 L 243.60 266.20 L 239.70 263.00 L 236.30 259.60 L 233.40 255.80 L 230.90 251.70 L 228.80 247.40 L 227.00 242.90 L 224.60 233.40 L 223.10 221.30 L 222.80 214.10 L 223.10 207.70 L 224.00 201.50 L 225.50 195.30 L 227.60 189.30 L 230.20 183.60 L 233.40 178.10 L 237.10 173.00 L 241.30 168.30 L 245.90 164.00 L 253.60 158.50 L 257.80 156.30 L 288.80 142.30 L 297.80 138.70 L 307.00 135.50 L 316.30 132.90 L 328.00 131.80 L 351.60 132.20 L 355.70 125.50 L 360.20 119.10 L 365.00 112.80 L 370.30 106.90 L 375.90 101.40 L 381.80 96.30 L 388.00 91.60 L 394.60 87.40 L 401.50 83.70 L 412.30 79.30 L 423.80 76.30 Z M 428.50 77.70 L 416.60 80.40 L 405.10 84.60 L 394.20 90.20 L 384.10 97.10 L 374.90 105.20 L 366.80 114.30 L 363.20 119.30 L 360.00 124.40 L 357.10 129.80 L 354.60 135.40 L 341.30 134.50 L 328.00 134.20 L 323.30 134.30 L 318.60 134.90 L 314.10 135.80 L 307.30 137.70 L 287.60 145.40 L 265.60 155.10 L 253.90 161.40 L 245.40 167.70 L 241.70 171.30 L 238.30 175.40 L 233.10 183.50 L 231.40 187.20 L 225.80 202.70 L 225.50 219.90 L 225.80 228.60 L 227.10 231.80 L 230.60 245.30 L 234.20 252.20 L 236.70 255.60 L 242.50 261.70 L 248.90 267.20 L 256.40 271.20 L 263.60 275.70 L 283.90 285.90 L 364.30 324.70 L 379.40 331.70 L 394.70 338.30 L 404.40 340.80 L 404.20 350.50 L 396.20 363.40 L 387.80 380.40 L 379.10 401.20 L 375.40 411.90 L 373.20 419.20 L 370.20 433.90 L 369.30 441.40 L 369.00 448.90 L 369.20 463.70 L 369.60 470.70 L 370.50 477.70 L 371.90 484.50 L 375.60 498.10 L 379.10 508.20 L 390.80 537.70 L 397.00 547.60 L 402.80 557.70 L 398.70 553.10 L 387.50 538.60 L 383.30 537.40 L 366.80 531.60 L 362.60 530.50 L 358.30 529.90 L 349.20 529.70 L 344.70 530.10 L 335.90 531.80 L 330.30 533.70 L 324.90 536.10 L 319.60 539.00 L 314.70 542.40 L 310.00 546.20 L 305.60 550.40 L 301.60 555.00 L 297.90 559.80 L 294.60 564.90 L 291.60 570.20 L 289.20 575.60 L 287.20 581.20 L 285.60 591.10 L 285.30 596.10 L 285.40 603.60 L 286.20 611.10 L 288.70 625.80 L 278.70 643.40 L 276.60 648.00 L 273.40 656.80 L 272.30 661.00 L 271.70 665.20 L 271.40 671.70 L 271.80 691.20 L 275.30 701.00 L 280.10 710.10 L 283.90 715.70 L 288.30 720.90 L 293.10 725.80 L 298.40 730.20 L 304.10 734.10 L 310.10 737.50 L 334.20 744.70 L 354.80 750.00 L 358.90 757.70 L 363.40 765.10 L 368.40 772.20 L 373.80 779.10 L 379.60 785.50 L 385.80 791.60 L 391.20 796.30 L 396.80 800.50 L 402.50 804.40 L 408.50 807.90 L 416.80 812.10 L 425.30 815.80 L 434.10 819.10 L 443.00 821.90 L 461.00 826.80 L 474.60 827.50 L 488.30 827.80 L 501.90 827.50 L 515.60 826.70 L 509.50 823.90 L 506.30 823.00 L 501.50 822.30 L 496.40 822.00 L 475.90 822.30 L 470.90 821.80 L 465.90 820.80 L 474.10 820.10 L 490.50 819.60 L 502.80 819.90 L 515.10 820.80 L 518.50 825.10 L 523.10 824.50 L 525.30 824.80 L 528.50 826.20 L 535.10 833.60 L 539.90 838.30 L 545.10 842.50 L 550.60 846.30 L 556.40 849.60 L 562.50 852.40 L 567.20 854.00 L 572.10 855.30 L 577.00 856.20 L 582.10 856.70 L 587.30 857.00 L 592.40 856.90 L 597.40 856.20 L 602.30 855.10 L 611.80 851.70 L 618.70 848.40 L 625.40 844.60 L 638.00 836.00 L 651.60 824.00 L 658.10 817.50 L 664.20 810.80 L 669.90 803.70 L 675.10 796.20 L 678.70 790.40 L 681.80 784.40 L 684.50 778.10 L 686.80 771.60 L 686.90 765.00 L 686.30 758.50 L 685.30 752.00 L 683.80 745.60 L 680.60 740.90 L 677.00 736.60 L 671.50 731.60 L 668.40 729.60 L 665.10 727.90 L 661.60 726.60 L 657.90 725.80 L 659.90 716.70 L 663.30 705.10 L 664.70 692.20 L 666.90 679.60 L 677.50 676.70 L 695.00 670.70 L 708.40 664.60 L 714.90 661.10 L 721.10 657.20 L 727.10 652.90 L 732.70 648.30 L 738.00 643.10 L 742.90 637.50 L 746.10 633.20 L 748.80 628.80 L 751.10 624.20 L 753.00 619.30 L 754.90 612.70 L 756.30 605.90 L 757.00 598.90 L 757.20 591.90 L 757.00 585.00 L 756.30 578.10 L 754.70 571.80 L 751.30 562.70 L 750.60 559.60 L 750.20 556.40 L 750.50 553.20 L 756.10 545.40 L 768.60 530.60 L 773.70 524.00 L 778.50 517.10 L 782.80 509.90 L 786.70 502.50 L 790.10 494.80 L 792.90 486.90 L 794.60 480.90 L 795.90 474.80 L 797.40 462.30 L 797.80 446.80 L 797.60 439.00 L 796.80 431.40 L 795.80 426.40 L 794.40 421.40 L 792.50 416.60 L 789.50 410.30 L 785.90 404.40 L 782.00 398.70 L 769.30 382.20 L 766.70 378.00 L 765.10 372.20 L 762.80 355.30 L 759.80 343.70 L 757.70 338.10 L 755.00 332.70 L 751.70 327.60 L 746.10 320.10 L 740.00 312.90 L 733.60 306.10 L 726.80 299.70 L 719.60 293.60 L 712.20 287.80 L 704.50 282.40 L 696.60 277.30 L 685.70 270.90 L 674.60 264.90 L 661.20 258.40 L 659.30 256.80 L 657.80 254.90 L 646.60 237.80 L 636.40 223.00 L 625.90 208.40 L 593.70 165.00 L 571.60 137.00 L 564.00 127.90 L 553.20 116.50 L 547.50 111.20 L 541.40 106.30 L 534.90 101.80 L 527.90 97.80 L 496.50 84.00 L 485.80 80.00 L 478.60 77.70 L 463.80 74.20 L 455.90 73.70 L 446.10 74.80 L 428.50 77.70 Z" fill="#772713" fill-rule="nonzero" node-id="41" stroke="none" target-height="787.5" target-width="578.60004" target-x="222.8" target-y="72"></path><path d="M 337.50 803.20 L 342.20 806.30 L 346.70 809.80 L 363.50 825.00 L 367.90 828.60 L 372.60 831.80 L 373.10 837.50 L 368.60 835.90 L 364.40 833.70 L 360.30 831.20 L 356.40 828.40 L 349.10 822.30 L 343.70 816.80 L 341.20 813.80 L 339.30 810.60 L 338.30 808.30 L 337.70 805.90 L 337.50 803.20 Z" fill="#772713" fill-rule="nonzero" node-id="43" stroke="none" target-height="34.299988" target-width="35.600006" target-x="337.5" target-y="803.2"></path><path d="M 348.20 894.90 L 378.90 892.50 L 409.50 890.70 L 440.20 889.40 L 470.90 888.60 L 501.60 888.40 L 532.30 888.70 L 563.00 889.60 L 612.40 891.80 L 631.10 893.10 L 649.70 894.80 L 668.30 897.00 L 686.80 899.80 L 705.20 903.20 L 718.40 906.60 L 725.00 908.50 L 731.30 911.00 L 735.30 913.10 L 739.10 915.60 L 742.60 918.60 L 742.50 920.50 L 741.40 923.60 L 739.80 925.50 L 737.80 927.10 L 733.00 929.60 L 728.20 931.50 L 716.20 934.80 L 704.00 937.60 L 691.70 939.90 L 654.60 945.10 L 608.40 948.80 L 562.20 951.00 L 515.90 951.90 L 481.20 951.90 L 446.40 951.50 L 396.20 948.90 L 362.70 946.50 L 346.00 944.90 L 329.30 942.90 L 312.80 940.20 L 296.30 937.00 L 283.20 933.90 L 278.80 932.60 L 270.60 929.30 L 266.70 927.10 L 263.10 924.60 L 259.70 921.50 L 264.00 915.00 L 265.80 913.10 L 267.80 911.50 L 270.10 910.30 L 276.30 907.70 L 289.00 903.70 L 298.70 901.50 L 308.50 899.80 L 348.20 894.90 Z" fill="#c4a392" fill-rule="nonzero" node-id="45" stroke="none" target-height="63.5" target-width="482.89996" target-x="259.7" target-y="888.4"></path><path d="M 305.40 640.70 L 308.70 638.00 L 312.20 635.90 L 316.00 634.20 L 319.90 632.90 L 323.90 632.20 L 327.90 632.00 L 332.00 632.40 L 335.80 633.30 L 339.60 634.70 L 344.60 638.00 L 349.10 642.70 L 350.00 650.70 L 352.50 667.20 L 356.00 683.70 L 353.00 683.30 L 350.20 682.60 L 347.60 681.40 L 343.90 679.10 L 329.70 667.20 L 317.20 657.50 L 313.40 654.00 L 310.10 650.10 L 308.20 647.30 L 306.60 644.10 L 305.40 640.70 Z" fill="#fcfcfc" fill-rule="nonzero" node-id="47" stroke="none" target-height="51.700012" target-width="50.600006" target-x="305.4" target-y="632"></path><path d="M 690.90 464.40 L 703.30 464.10 L 701.30 467.30 L 700.10 468.30 L 697.80 469.40 L 695.30 470.00 L 689.90 470.50 L 690.90 464.40 Z" fill="#c6a695" fill-rule="nonzero" node-id="49" stroke="none" target-height="6.399994" target-width="13.399963" target-x="689.9" target-y="464.1"></path><path d="M 428.50 77.70 L 446.10 74.80 L 455.90 73.70 L 463.80 74.20 L 478.60 77.70 L 485.80 80.00 L 496.50 84.00 L 527.90 97.80 L 534.90 101.80 L 541.40 106.30 L 547.50 111.20 L 553.20 116.50 L 564.00 127.90 L 571.60 137.00 L 593.70 165.00 L 625.90 208.40 L 636.40 223.00 L 646.60 237.80 L 657.80 254.90 L 659.30 256.80 L 661.20 258.40 L 674.70 264.90 L 685.70 270.90 L 696.60 277.30 L 704.50 282.40 L 712.20 287.80 L 719.60 293.60 L 726.80 299.70 L 733.60 306.10 L 740.00 312.90 L 746.10 320.10 L 751.70 327.60 L 755.00 332.70 L 757.70 338.10 L 759.80 343.70 L 762.80 355.30 L 765.10 372.20 L 766.70 378.00 L 769.30 382.20 L 782.00 398.70 L 785.90 404.40 L 789.50 410.30 L 792.50 416.60 L 794.40 421.40 L 795.80 426.40 L 796.80 431.40 L 797.60 439.00 L 797.80 446.80 L 797.40 462.30 L 796.90 468.60 L 795.90 474.80 L 794.60 480.90 L 792.90 486.90 L 790.10 494.80 L 786.70 502.50 L 782.80 509.90 L 778.50 517.10 L 773.70 524.00 L 768.60 530.60 L 756.10 545.40 L 750.50 553.20 L 750.20 556.40 L 750.60 559.60 L 751.30 562.60 L 754.70 571.80 L 756.30 578.10 L 757.00 585.00 L 757.20 591.90 L 757.00 598.90 L 756.30 605.90 L 754.90 612.70 L 753.00 619.30 L 751.10 624.20 L 748.80 628.80 L 746.10 633.20 L 742.90 637.50 L 738.00 643.10 L 732.70 648.30 L 727.10 652.90 L 721.10 657.20 L 714.90 661.10 L 708.40 664.60 L 695.00 670.70 L 677.50 676.70 L 666.90 679.60 L 664.70 692.20 L 663.30 705.10 L 659.90 716.70 L 657.90 725.80 L 661.60 726.60 L 665.10 727.90 L 668.40 729.60 L 671.50 731.60 L 677.00 736.60 L 680.60 740.90 L 683.80 745.60 L 685.30 752.00 L 686.30 758.50 L 686.90 765.00 L 686.80 771.60 L 684.50 778.10 L 681.80 784.40 L 678.70 790.40 L 675.10 796.20 L 669.90 803.70 L 664.20 810.70 L 658.10 817.50 L 651.60 824.00 L 638.00 836.00 L 625.40 844.60 L 618.70 848.40 L 611.80 851.70 L 607.10 853.60 L 597.40 856.20 L 592.40 856.90 L 587.30 857.00 L 577.00 856.20 L 572.10 855.30 L 567.20 854.00 L 562.50 852.40 L 556.40 849.60 L 550.60 846.30 L 545.10 842.50 L 539.90 838.30 L 535.10 833.60 L 528.50 826.20 L 525.30 824.80 L 523.10 824.50 L 518.50 825.10 L 515.10 820.80 L 527.70 819.60 L 534.60 825.30 L 544.10 834.70 L 547.60 837.50 L 552.10 840.80 L 556.80 843.60 L 561.90 846.10 L 567.10 848.20 L 572.50 849.70 L 578.00 850.90 L 583.50 851.50 L 589.10 851.60 L 594.60 851.20 L 600.00 850.20 L 605.40 848.70 L 610.60 846.50 L 618.60 842.40 L 626.30 837.70 L 633.70 832.60 L 640.70 826.90 L 647.40 820.90 L 653.80 814.50 L 659.80 807.80 L 665.50 800.80 L 670.80 793.50 L 674.00 788.40 L 676.80 782.90 L 678.40 779.10 L 680.60 771.20 L 681.20 767.20 L 681.30 759.10 L 680.80 755.20 L 679.70 751.20 L 678.20 747.40 L 676.10 743.90 L 673.60 740.90 L 670.80 738.30 L 664.40 734.00 L 660.80 732.30 L 655.30 730.10 L 649.70 728.50 L 652.50 719.80 L 656.90 702.20 L 659.30 688.90 L 661.30 675.40 L 673.50 672.40 L 685.70 668.80 L 693.60 666.00 L 701.40 662.70 L 708.90 659.10 L 714.40 656.00 L 719.60 652.50 L 724.60 648.70 L 733.50 640.50 L 737.20 636.30 L 740.40 631.70 L 743.30 626.80 L 745.80 621.70 L 747.80 616.50 L 749.50 611.10 L 750.70 605.50 L 751.50 599.90 L 751.80 594.30 L 751.80 588.60 L 751.20 583.00 L 750.30 577.40 L 748.90 572.00 L 747.00 566.70 L 744.60 561.60 L 737.50 560.90 L 736.40 557.90 L 740.10 555.00 L 746.90 548.60 L 756.10 537.90 L 770.00 520.20 L 774.70 513.10 L 778.80 505.70 L 782.40 498.00 L 785.50 490.20 L 788.00 482.10 L 790.00 473.90 L 791.40 465.50 L 792.20 457.10 L 792.40 448.70 L 792.10 440.20 L 791.10 431.80 L 789.80 426.20 L 787.90 420.90 L 785.60 415.80 L 779.90 406.20 L 776.60 401.50 L 764.20 385.60 L 762.60 382.90 L 759.90 375.60 L 759.00 371.00 L 756.90 356.80 L 754.50 346.60 L 752.60 341.30 L 750.20 336.30 L 744.10 326.70 L 740.60 322.20 L 735.00 315.80 L 729.20 309.70 L 722.60 303.60 L 708.70 292.50 L 693.90 282.50 L 678.30 273.70 L 663.50 266.40 L 657.40 262.10 L 654.70 259.40 L 652.50 256.40 L 631.00 225.10 L 602.90 186.90 L 585.80 164.20 L 564.00 137.10 L 556.20 128.40 L 550.80 122.80 L 539.30 112.60 L 533.10 108.10 L 526.50 104.00 L 519.50 100.40 L 499.60 91.80 L 489.40 87.90 L 479.10 84.60 L 472.10 82.80 L 465.00 81.50 L 457.70 80.70 L 449.10 81.00 L 440.50 81.70 L 431.90 83.00 L 419.20 85.90 L 407.00 90.20 L 401.20 93.00 L 395.50 96.10 L 390.10 99.70 L 380.80 107.20 L 376.90 111.10 L 373.40 115.20 L 367.10 124.10 L 364.30 128.80 L 360.60 136.10 L 357.40 143.70 L 347.20 141.30 L 337.30 140.40 L 330.60 140.50 L 324.00 141.20 L 317.40 142.30 L 304.40 145.70 L 288.40 151.70 L 260.80 164.30 L 256.50 166.80 L 252.70 169.70 L 249.20 172.80 L 246.00 176.20 L 243.10 179.90 L 238.40 187.80 L 236.60 192.20 L 234.60 198.10 L 233.20 204.20 L 232.40 210.50 L 232.10 216.90 L 232.40 223.20 L 233.20 229.60 L 234.60 235.80 L 236.50 241.70 L 238.90 247.40 L 240.80 250.50 L 245.30 255.90 L 249.20 259.40 L 253.50 262.60 L 258.10 265.40 L 272.10 273.10 L 343.30 308.40 L 383.30 327.00 L 415.80 340.70 L 397.30 375.30 L 391.70 387.00 L 385.10 403.10 L 382.20 411.20 L 379.70 419.50 L 377.70 428.00 L 376.10 436.60 L 375.20 451.70 L 375.80 466.80 L 377.00 476.80 L 378.80 486.70 L 381.20 496.50 L 384.20 506.20 L 387.70 515.60 L 391.90 524.80 L 396.60 533.70 L 401.80 542.30 L 407.50 550.60 L 411.10 557.50 L 404.20 561.80 L 402.40 562.50 L 399.50 562.50 L 397.30 560.90 L 389.40 552.60 L 385.10 548.70 L 377.50 542.90 L 370.90 539.30 L 367.40 538.00 L 363.70 537.00 L 354.90 535.90 L 350.10 535.80 L 345.50 536.20 L 340.90 537.00 L 332.00 539.70 L 323.70 543.80 L 318.50 547.20 L 313.60 551.10 L 309.10 555.50 L 305.00 560.30 L 301.40 565.40 L 298.20 570.80 L 295.50 576.50 L 293.40 582.40 L 291.90 588.50 L 291.20 593.10 L 290.90 602.50 L 291.70 610.30 L 294.50 620.10 L 295.20 623.30 L 295.20 626.40 L 294.90 628.30 L 294.00 630.20 L 288.70 637.40 L 285.40 642.90 L 282.70 648.70 L 280.50 654.80 L 278.90 661.00 L 277.90 667.40 L 277.50 673.80 L 277.60 680.20 L 278.30 686.60 L 279.60 692.80 L 281.60 698.90 L 284.10 704.80 L 286.40 709.00 L 289.00 713.00 L 292.00 716.80 L 295.30 720.40 L 299.40 724.10 L 303.70 727.30 L 308.30 730.10 L 318.00 734.60 L 323.10 736.40 L 330.80 738.80 L 354.30 744.90 L 357.40 746.20 L 360.20 748.90 L 368.20 762.10 L 372.60 768.60 L 377.50 774.70 L 382.70 780.50 L 388.40 785.90 L 394.30 791.00 L 400.60 795.70 L 407.10 800.00 L 413.90 804.00 L 420.90 807.60 L 428.10 810.80 L 435.50 813.60 L 443.00 816.00 L 450.60 818.00 L 470.90 821.80 L 475.90 822.30 L 496.40 822.00 L 501.50 822.30 L 506.30 823.00 L 509.50 823.90 L 515.60 826.70 L 501.90 827.50 L 488.30 827.80 L 474.60 827.50 L 461.00 826.80 L 443.00 821.90 L 434.10 819.10 L 425.30 815.80 L 416.80 812.10 L 408.50 807.90 L 402.50 804.40 L 396.80 800.50 L 391.20 796.30 L 385.80 791.60 L 379.60 785.50 L 373.80 779.10 L 368.40 772.20 L 363.40 765.10 L 358.90 757.70 L 354.80 750.00 L 334.20 744.70 L 310.10 737.50 L 304.10 734.10 L 298.40 730.20 L 293.20 725.80 L 288.30 720.90 L 283.90 715.70 L 280.10 710.10 L 275.30 701.00 L 271.80 691.20 L 271.40 671.70 L 271.70 665.20 L 272.30 661.00 L 273.40 656.80 L 276.60 648.00 L 278.70 643.40 L 288.70 625.80 L 286.20 611.10 L 285.50 603.60 L 285.30 596.10 L 285.60 591.10 L 287.20 581.20 L 289.20 575.60 L 291.60 570.20 L 294.60 564.90 L 297.90 559.80 L 301.60 555.00 L 305.60 550.40 L 310.00 546.20 L 314.70 542.40 L 319.60 539.00 L 324.90 536.10 L 330.30 533.70 L 335.90 531.80 L 344.70 530.10 L 349.20 529.70 L 358.30 529.90 L 362.60 530.50 L 366.80 531.60 L 383.30 537.40 L 387.50 538.60 L 398.80 553.10 L 402.80 557.70 L 397.00 547.60 L 390.80 537.70 L 379.10 508.20 L 375.60 498.10 L 371.90 484.50 L 370.50 477.70 L 369.60 470.70 L 369.20 463.70 L 369.00 448.90 L 369.30 441.40 L 370.20 433.90 L 373.20 419.20 L 375.40 411.90 L 379.10 401.20 L 387.80 380.40 L 396.20 363.40 L 404.20 350.50 L 404.40 340.80 L 394.70 338.30 L 379.40 331.70 L 364.30 324.70 L 283.90 285.90 L 263.60 275.70 L 256.40 271.20 L 248.90 267.20 L 242.50 261.70 L 236.70 255.60 L 234.20 252.20 L 230.60 245.30 L 227.10 231.80 L 225.80 228.60 L 225.50 219.90 L 225.80 202.70 L 231.40 187.20 L 233.10 183.50 L 238.30 175.40 L 241.70 171.30 L 245.40 167.70 L 253.90 161.40 L 265.60 155.10 L 287.60 145.40 L 307.30 137.70 L 314.10 135.80 L 318.60 134.90 L 323.30 134.30 L 328.00 134.20 L 341.30 134.50 L 354.60 135.40 L 357.10 129.80 L 360.00 124.40 L 363.20 119.30 L 366.80 114.30 L 374.90 105.20 L 384.10 97.10 L 394.20 90.20 L 405.10 84.60 L 416.60 80.40 L 428.50 77.70 Z" fill="#f6e5bd" fill-rule="nonzero" node-id="51" stroke="none" target-height="783.3" target-width="572.3" target-x="225.5" target-y="73.7"></path><path d="M 384.90 103.70 L 390.10 99.70 L 395.50 96.10 L 401.20 93.00 L 407.00 90.20 L 419.20 85.90 L 431.90 83.00 L 440.50 81.70 L 449.10 81.00 L 457.70 80.70 L 465.00 81.50 L 472.10 82.80 L 479.10 84.60 L 489.40 87.90 L 499.60 91.80 L 519.50 100.40 L 526.50 104.00 L 533.10 108.10 L 539.30 112.60 L 550.80 122.80 L 556.20 128.40 L 564.00 137.10 L 585.80 164.20 L 619.90 209.80 L 631.00 225.10 L 654.70 259.40 L 657.40 262.10 L 663.50 266.40 L 686.20 277.90 L 693.90 282.50 L 708.70 292.50 L 722.60 303.60 L 729.20 309.70 L 735.00 315.80 L 740.60 322.20 L 744.10 326.70 L 750.20 336.30 L 752.60 341.30 L 754.50 346.60 L 756.90 356.80 L 759.00 371.00 L 759.90 375.60 L 761.30 380.10 L 762.60 382.90 L 764.20 385.60 L 776.60 401.50 L 779.90 406.20 L 785.60 415.80 L 787.90 420.90 L 789.80 426.20 L 791.10 431.80 L 792.10 440.20 L 792.40 448.70 L 792.20 457.10 L 791.40 465.50 L 790.00 473.90 L 788.00 482.10 L 785.50 490.20 L 782.40 498.00 L 778.80 505.70 L 774.70 513.10 L 770.00 520.20 L 756.10 537.90 L 746.90 548.60 L 740.10 555.00 L 736.40 557.90 L 737.50 560.90 L 744.60 561.60 L 747.00 566.70 L 748.90 572.00 L 750.30 577.40 L 751.20 583.00 L 751.80 588.60 L 751.80 594.30 L 751.50 599.90 L 750.70 605.50 L 749.50 611.10 L 747.80 616.50 L 745.80 621.70 L 743.30 626.80 L 740.40 631.70 L 737.20 636.30 L 733.50 640.50 L 724.60 648.70 L 719.60 652.50 L 714.40 656.00 L 708.90 659.10 L 701.40 662.70 L 693.60 666.00 L 685.70 668.80 L 673.50 672.40 L 661.30 675.40 L 659.30 688.90 L 656.90 702.20 L 652.50 719.80 L 649.70 728.50 L 655.30 730.10 L 664.40 734.00 L 670.80 738.30 L 673.60 740.90 L 676.10 743.90 L 678.20 747.40 L 679.70 751.20 L 680.80 755.20 L 681.30 759.10 L 681.20 767.20 L 680.60 771.20 L 678.40 779.10 L 676.80 782.90 L 674.00 788.40 L 670.80 793.50 L 665.50 800.80 L 659.80 807.80 L 653.80 814.50 L 647.40 820.90 L 640.70 826.90 L 633.70 832.60 L 626.30 837.70 L 618.60 842.40 L 610.60 846.50 L 605.40 848.70 L 600.00 850.20 L 594.60 851.20 L 589.10 851.60 L 583.50 851.50 L 578.00 850.90 L 572.50 849.70 L 567.10 848.20 L 561.90 846.10 L 556.80 843.60 L 552.10 840.80 L 547.60 837.50 L 544.10 834.70 L 534.60 825.30 L 531.30 822.30 L 527.70 819.60 L 515.10 820.80 L 502.80 819.90 L 490.50 819.60 L 474.10 820.10 L 465.90 820.80 L 458.20 819.60 L 450.60 818.00 L 443.00 816.00 L 435.50 813.60 L 428.10 810.80 L 420.90 807.60 L 413.90 804.00 L 407.10 800.00 L 400.60 795.70 L 394.30 791.00 L 388.40 785.90 L 382.70 780.50 L 377.50 774.70 L 372.60 768.60 L 368.20 762.10 L 360.20 749.00 L 357.40 746.20 L 354.30 744.90 L 330.80 738.80 L 318.00 734.60 L 308.30 730.10 L 303.70 727.30 L 299.40 724.10 L 295.30 720.40 L 292.00 716.80 L 289.00 713.00 L 286.40 709.00 L 284.10 704.80 L 281.60 698.90 L 279.60 692.80 L 278.30 686.60 L 277.60 680.20 L 277.50 673.80 L 277.90 667.40 L 278.90 661.00 L 280.50 654.80 L 282.70 648.70 L 285.40 642.90 L 288.70 637.40 L 294.00 630.20 L 294.90 628.30 L 295.20 626.40 L 295.20 623.30 L 294.50 620.10 L 291.70 610.30 L 290.90 602.50 L 291.20 593.10 L 291.90 588.50 L 293.40 582.40 L 295.50 576.50 L 298.20 570.80 L 301.40 565.40 L 305.00 560.30 L 309.10 555.50 L 313.60 551.10 L 318.50 547.20 L 323.70 543.80 L 332.00 539.70 L 340.90 537.00 L 345.50 536.20 L 350.10 535.80 L 354.90 535.90 L 363.70 537.00 L 367.40 538.00 L 370.90 539.30 L 377.50 542.90 L 385.10 548.70 L 389.40 552.60 L 397.30 560.90 L 399.50 562.50 L 402.40 562.50 L 404.20 561.80 L 411.10 557.50 L 407.50 550.60 L 401.80 542.30 L 396.60 533.70 L 391.90 524.80 L 387.70 515.60 L 384.20 506.20 L 381.20 496.50 L 378.80 486.70 L 377.00 476.80 L 375.80 466.80 L 375.20 451.70 L 376.10 436.60 L 377.70 428.00 L 379.70 419.50 L 382.20 411.20 L 385.10 403.10 L 391.70 387.00 L 397.30 375.30 L 415.80 340.70 L 383.30 327.00 L 343.30 308.40 L 272.10 273.10 L 258.10 265.40 L 249.20 259.40 L 245.30 255.90 L 240.80 250.50 L 238.90 247.40 L 236.50 241.70 L 234.60 235.80 L 233.20 229.60 L 232.40 223.20 L 232.10 216.90 L 232.40 210.50 L 233.20 204.20 L 234.60 198.10 L 236.60 192.20 L 240.60 183.70 L 246.00 176.20 L 249.20 172.80 L 252.70 169.70 L 256.50 166.80 L 260.80 164.30 L 288.40 151.70 L 304.40 145.70 L 317.40 142.30 L 324.00 141.20 L 330.60 140.50 L 337.30 140.40 L 347.20 141.30 L 357.40 143.70 L 360.60 136.10 L 364.30 128.80 L 370.10 119.60 L 376.90 111.10 L 380.80 107.20 L 384.90 103.70 Z M 391.80 119.40 L 386.10 126.30 L 380.90 133.80 L 378.50 139.20 L 377.70 142.20 L 384.00 144.70 L 396.10 150.60 L 404.70 155.90 L 413.00 161.60 L 445.00 186.40 L 546.90 264.10 L 550.00 264.80 L 552.60 264.80 L 566.90 262.70 L 580.30 261.50 L 590.40 261.30 L 620.60 261.40 L 629.60 263.50 L 638.60 265.10 L 631.20 253.80 L 623.30 242.70 L 591.00 199.10 L 571.60 173.60 L 561.50 161.00 L 551.10 148.80 L 543.90 141.00 L 536.30 133.50 L 528.30 126.30 L 522.80 122.20 L 517.00 118.50 L 511.00 115.20 L 498.40 109.70 L 482.00 104.20 L 472.10 101.30 L 465.20 100.10 L 458.10 99.30 L 451.00 99.00 L 443.80 99.20 L 436.80 99.80 L 429.70 101.00 L 422.80 102.70 L 416.10 104.90 L 409.60 107.60 L 404.90 110.10 L 396.00 115.90 L 391.80 119.40 Z M 296.20 167.60 L 280.10 174.20 L 269.70 179.20 L 264.90 182.30 L 261.90 184.60 L 256.60 190.30 L 256.70 192.10 L 252.80 199.30 L 250.20 207.00 L 249.20 212.30 L 248.80 217.70 L 249.10 223.10 L 249.70 227.20 L 252.00 235.00 L 253.70 238.70 L 257.10 242.20 L 264.40 248.10 L 270.40 251.90 L 276.60 255.40 L 302.40 267.70 L 332.70 281.40 L 362.70 295.80 L 393.00 309.40 L 392.20 310.10 L 400.00 313.30 L 429.90 328.40 L 437.60 331.70 L 440.50 333.90 L 443.80 335.80 L 454.00 340.50 L 457.00 342.50 L 460.40 345.90 L 461.80 348.10 L 457.60 348.40 L 453.50 348.30 L 445.20 347.10 L 437.10 345.30 L 431.40 352.40 L 426.10 359.80 L 421.30 367.50 L 416.90 375.50 L 412.90 383.60 L 406.00 400.40 L 400.50 417.70 L 398.60 425.20 L 397.00 432.70 L 395.90 440.40 L 395.20 448.10 L 395.00 455.90 L 395.20 463.60 L 395.80 471.30 L 396.90 479.00 L 398.50 486.50 L 400.60 494.00 L 403.10 501.30 L 409.20 515.50 L 412.60 522.30 L 416.50 528.80 L 420.70 535.10 L 430.10 546.90 L 440.70 557.80 L 448.30 564.50 L 456.30 570.70 L 464.70 576.50 L 473.30 581.90 L 482.20 586.80 L 497.00 594.30 L 499.50 596.60 L 500.40 599.60 L 490.30 597.30 L 480.50 594.50 L 470.80 591.10 L 461.20 587.20 L 442.60 578.50 L 431.90 571.90 L 429.10 570.60 L 426.20 569.70 L 424.30 569.60 L 420.10 570.40 L 414.20 573.90 L 408.60 577.70 L 403.20 581.90 L 398.00 586.50 L 393.10 591.30 L 388.60 596.50 L 384.30 601.90 L 380.40 607.60 L 376.80 613.50 L 373.60 619.50 L 370.70 625.80 L 368.30 632.20 L 366.20 638.80 L 364.50 645.40 L 363.20 652.10 L 362.40 658.90 L 362.00 665.80 L 362.10 672.60 L 362.70 679.40 L 363.70 686.30 L 361.10 686.30 L 356.00 683.70 L 352.50 667.20 L 350.00 650.70 L 349.10 642.70 L 346.90 640.10 L 342.20 636.20 L 339.60 634.70 L 335.80 633.30 L 332.00 632.40 L 327.90 632.00 L 323.90 632.20 L 319.90 632.90 L 316.00 634.20 L 312.20 635.90 L 308.70 638.00 L 305.40 640.70 L 302.80 644.10 L 300.50 647.60 L 298.60 651.30 L 297.10 655.10 L 295.70 660.50 L 294.80 666.00 L 294.60 671.60 L 294.90 677.30 L 295.70 682.80 L 297.00 688.30 L 298.80 693.70 L 301.10 698.80 L 303.80 703.60 L 307.10 707.20 L 310.60 710.20 L 314.40 712.90 L 322.50 717.10 L 333.50 720.90 L 361.30 726.90 L 367.90 728.60 L 370.70 732.60 L 379.60 750.30 L 382.50 754.40 L 386.80 759.90 L 391.40 765.00 L 396.30 769.80 L 401.50 774.20 L 412.80 782.10 L 424.90 788.80 L 433.30 792.50 L 442.00 795.70 L 450.80 798.40 L 459.80 800.60 L 468.90 802.30 L 477.90 803.50 L 486.80 803.80 L 495.80 803.70 L 504.60 803.10 L 513.40 802.00 L 525.10 799.90 L 536.70 797.10 L 548.10 793.80 L 559.40 789.90 L 570.50 785.70 L 581.50 781.20 L 576.50 786.80 L 569.30 792.60 L 545.60 807.60 L 545.50 810.60 L 558.10 822.10 L 562.60 825.70 L 572.00 832.10 L 577.00 834.70 L 582.20 836.90 L 587.70 838.50 L 591.10 838.30 L 597.50 837.00 L 602.10 835.10 L 606.50 832.80 L 610.80 830.10 L 622.90 821.20 L 636.40 809.60 L 642.80 803.30 L 648.90 796.70 L 656.10 787.20 L 659.20 782.20 L 661.90 777.00 L 664.20 771.60 L 666.10 765.80 L 666.50 762.60 L 666.40 759.50 L 665.80 756.60 L 664.70 753.70 L 663.20 751.10 L 661.30 748.70 L 659.10 746.60 L 656.70 744.90 L 654.00 743.40 L 651.20 742.40 L 648.20 741.80 L 645.20 741.70 L 642.20 742.10 L 639.30 743.00 L 633.80 745.90 L 629.30 749.40 L 620.30 758.70 L 617.00 761.30 L 614.70 762.70 L 612.10 763.70 L 609.20 764.40 L 609.40 761.80 L 609.90 759.40 L 610.90 757.10 L 612.70 753.90 L 622.40 739.90 L 627.70 729.90 L 630.90 722.00 L 633.70 713.90 L 638.70 697.60 L 644.10 677.60 L 634.50 677.20 L 605.60 677.00 L 596.00 676.60 L 578.20 674.70 L 574.10 674.10 L 570.20 673.00 L 567.80 671.90 L 565.50 670.40 L 563.50 668.50 L 588.00 669.10 L 600.30 669.00 L 612.50 668.40 L 628.70 666.70 L 659.40 662.00 L 666.90 660.50 L 671.80 659.20 L 676.60 657.50 L 681.30 655.40 L 692.50 652.20 L 703.50 647.40 L 708.60 644.50 L 713.60 641.20 L 718.20 637.50 L 722.50 633.50 L 726.40 629.00 L 718.70 627.50 L 720.70 625.10 L 723.00 623.00 L 730.10 617.20 L 732.10 614.90 L 734.00 611.40 L 734.60 609.20 L 733.20 608.30 L 727.50 606.50 L 725.80 605.60 L 724.70 604.60 L 724.40 603.70 L 724.40 602.60 L 724.90 601.00 L 736.60 596.20 L 735.80 587.60 L 734.80 583.50 L 733.50 579.40 L 717.70 580.20 L 709.60 581.90 L 701.50 584.00 L 677.40 591.60 L 669.00 593.90 L 660.50 595.90 L 647.60 598.50 L 634.60 600.40 L 622.90 596.60 L 628.40 595.30 L 645.40 592.40 L 651.00 591.10 L 656.30 589.40 L 663.00 586.10 L 666.10 583.90 L 672.10 582.00 L 677.80 579.90 L 683.40 577.30 L 694.00 571.30 L 699.10 567.80 L 706.50 562.30 L 713.70 556.50 L 727.50 544.20 L 739.50 531.20 L 745.20 524.30 L 750.60 517.10 L 755.50 509.60 L 760.00 501.90 L 764.10 493.90 L 767.50 485.80 L 770.40 477.40 L 772.00 471.00 L 773.30 464.40 L 774.10 457.80 L 774.80 445.70 L 774.50 440.40 L 773.70 435.30 L 772.40 430.20 L 770.60 425.30 L 768.30 420.60 L 765.70 416.10 L 762.60 411.80 L 759.10 407.80 L 755.20 414.70 L 747.60 411.40 L 747.10 409.60 L 747.40 406.50 L 750.10 399.80 L 750.70 396.10 L 746.70 385.20 L 739.00 356.30 L 735.20 346.30 L 732.80 341.50 L 729.90 337.00 L 726.40 332.70 L 713.70 319.70 L 706.80 313.50 L 699.80 307.70 L 692.40 302.20 L 684.80 297.10 L 676.90 292.50 L 668.80 288.30 L 660.50 284.60 L 651.90 281.50 L 643.20 279.00 L 634.20 277.00 L 611.60 274.40 L 600.20 273.60 L 588.90 273.40 L 581.30 273.50 L 566.20 274.90 L 558.80 276.10 L 551.40 277.90 L 539.40 281.40 L 529.90 283.10 L 518.00 271.80 L 493.30 250.30 L 455.40 219.00 L 427.30 196.30 L 417.80 188.90 L 404.80 179.70 L 398.00 175.50 L 391.00 171.70 L 383.70 168.40 L 369.60 163.20 L 363.10 161.30 L 356.40 160.00 L 349.60 159.10 L 342.80 158.70 L 336.00 158.70 L 329.20 159.10 L 322.40 160.00 L 315.70 161.30 L 309.10 163.00 L 302.60 165.10 L 296.20 167.60 Z M 341.00 551.40 L 336.90 552.60 L 333.00 554.20 L 329.40 556.10 L 326.00 558.30 L 319.90 563.80 L 314.90 570.30 L 312.20 575.00 L 310.10 580.00 L 308.50 585.30 L 307.50 590.70 L 307.10 596.20 L 307.40 601.70 L 308.00 605.80 L 309.00 609.70 L 310.50 613.60 L 312.30 617.50 L 324.40 616.40 L 332.40 616.60 L 336.40 617.30 L 349.80 622.50 L 354.40 624.00 L 364.00 604.20 L 370.90 594.40 L 374.60 589.70 L 383.40 579.90 L 384.30 578.40 L 384.80 576.90 L 384.80 575.20 L 384.10 573.30 L 382.20 570.10 L 377.60 564.30 L 372.10 559.40 L 366.20 555.80 L 360.20 553.40 L 355.50 552.20 L 350.70 551.60 L 341.00 551.40 Z" fill="#712514" fill-rule="nonzero" node-id="53" stroke="none" target-height="770.89996" target-width="560.30005" target-x="232.1" target-y="80.7"></path><path d="M 391.80 119.40 L 396.00 115.90 L 404.90 110.10 L 409.60 107.60 L 416.10 104.90 L 422.80 102.70 L 429.70 101.00 L 436.80 99.80 L 443.80 99.20 L 451.00 99.00 L 458.10 99.30 L 465.20 100.10 L 472.10 101.30 L 482.00 104.20 L 498.40 109.70 L 511.00 115.20 L 517.00 118.50 L 522.80 122.20 L 528.30 126.30 L 536.30 133.50 L 543.90 141.00 L 551.10 148.80 L 561.50 161.00 L 571.60 173.60 L 591.00 199.10 L 623.30 242.70 L 631.20 253.80 L 638.60 265.10 L 629.60 263.50 L 620.60 261.40 L 604.40 254.10 L 588.50 246.30 L 572.80 238.10 L 542.00 220.70 L 504.30 197.40 L 437.70 153.40 L 406.80 131.10 L 391.80 119.40 Z" fill="#fdfefe" fill-rule="nonzero" node-id="55" stroke="none" target-height="166.1" target-width="246.79999" target-x="391.8" target-y="99"></path><path d="M 377.70 142.20 L 378.50 139.20 L 380.90 133.70 L 386.10 126.30 L 391.80 119.40 L 406.80 131.10 L 437.70 153.40 L 482.00 182.80 L 504.30 197.40 L 526.80 211.50 L 542.00 220.70 L 572.80 238.10 L 588.50 246.30 L 604.40 254.10 L 620.60 261.40 L 590.40 261.30 L 580.30 261.50 L 566.90 262.70 L 552.60 264.80 L 550.00 264.80 L 546.90 264.10 L 445.00 186.40 L 413.00 161.60 L 404.70 155.90 L 396.10 150.60 L 384.00 144.70 L 377.70 142.20 Z" fill="#d7c2c2" fill-rule="nonzero" node-id="57" stroke="none" target-height="145.4" target-width="242.89996" target-x="377.7" target-y="119.4"></path><path d="M 253.70 238.70 L 252.00 235.00 L 249.70 227.20 L 249.10 223.10 L 248.80 217.70 L 249.20 212.30 L 250.20 207.00 L 251.30 203.00 L 254.60 195.60 L 256.70 192.10 L 258.80 213.60 L 261.40 232.00 L 253.70 238.70 Z" fill="#e2d5de" fill-rule="nonzero" node-id="59" stroke="none" target-height="46.59999" target-width="12.599991" target-x="248.8" target-y="192.1"></path><path d="M 258.80 213.60 L 261.90 220.80 L 265.70 227.70 L 268.20 230.70 L 271.10 233.30 L 273.80 233.90 L 279.10 234.10 L 287.20 232.90 L 295.10 230.90 L 293.90 233.00 L 292.70 237.20 L 292.60 239.40 L 292.90 241.50 L 293.60 243.50 L 294.70 245.30 L 296.20 246.90 L 298.30 248.40 L 309.50 255.10 L 320.90 261.50 L 332.50 267.50 L 403.40 301.10 L 393.00 309.40 L 377.80 302.80 L 317.60 274.40 L 302.40 267.70 L 283.00 258.60 L 270.40 251.90 L 260.70 245.30 L 253.70 238.70 L 261.40 232.00 L 258.80 213.60 Z" fill="#f3eff2" fill-rule="nonzero" node-id="61" stroke="none" target-height="95.79999" target-width="149.7" target-x="253.7" target-y="213.6"></path><path d="M 295.10 230.90 L 315.30 224.70 L 325.50 222.00 L 335.80 219.70 L 342.70 218.70 L 349.70 218.00 L 356.80 217.90 L 367.40 219.10 L 372.60 220.20 L 382.80 223.40 L 395.00 228.90 L 422.00 244.70 L 435.00 253.30 L 441.20 258.00 L 414.90 256.90 L 401.70 256.90 L 379.30 258.00 L 370.20 257.90 L 361.10 257.20 L 324.60 253.20 L 315.40 252.50 L 308.80 250.10 L 301.90 248.20 L 298.30 248.40 L 296.20 246.90 L 294.70 245.30 L 293.60 243.50 L 292.90 241.50 L 292.60 239.40 L 293.10 235.10 L 295.10 230.90 Z" fill="#f5e3e4" fill-rule="nonzero" node-id="63" stroke="none" target-height="40.100006" target-width="148.6" target-x="292.6" target-y="217.9"></path><path d="M 301.90 248.20 L 308.80 250.10 L 315.40 252.50 L 328.20 259.50 L 354.30 272.10 L 445.00 313.00 L 470.80 323.70 L 475.70 317.60 L 481.00 312.00 L 492.70 301.70 L 505.00 292.00 L 505.80 296.40 L 497.60 303.40 L 484.40 315.70 L 479.50 321.10 L 474.00 327.80 L 471.90 329.00 L 470.10 329.20 L 468.20 328.90 L 460.60 326.30 L 432.00 313.80 L 403.40 301.10 L 350.20 276.00 L 332.50 267.50 L 320.90 261.50 L 309.50 255.10 L 298.30 248.40 L 301.90 248.20 Z" fill="#772f26" fill-rule="nonzero" node-id="65" stroke="none" target-height="81.000015" target-width="207.5" target-x="298.3" target-y="248.2"></path><path d="M 315.40 252.50 L 324.60 253.20 L 361.10 257.20 L 370.20 257.90 L 379.30 258.00 L 401.70 256.90 L 414.90 256.90 L 441.20 258.00 L 449.30 262.00 L 474.20 273.10 L 482.40 277.10 L 490.30 281.40 L 495.40 284.60 L 505.00 292.00 L 492.70 301.70 L 481.00 312.00 L 475.70 317.60 L 470.80 323.70 L 445.00 313.00 L 354.30 272.10 L 328.20 259.50 L 315.40 252.50 Z" fill="#e0949c" fill-rule="nonzero" node-id="67" stroke="none" target-height="71.20001" target-width="189.6" target-x="315.4" target-y="252.5"></path><path d="M 437.60 331.70 L 446.30 334.20 L 454.80 337.30 L 458.70 339.50 L 462.30 342.30 L 462.90 345.30 L 461.90 348.70 L 456.00 356.40 L 450.60 367.10 L 446.70 375.90 L 443.20 385.00 L 440.10 394.30 L 437.50 403.60 L 435.50 413.10 L 433.90 422.70 L 431.70 440.80 L 431.20 449.20 L 431.10 457.60 L 431.60 466.00 L 432.60 474.40 L 434.10 482.60 L 436.10 490.80 L 438.50 498.90 L 441.40 506.80 L 444.70 514.60 L 448.40 522.10 L 452.60 529.50 L 457.20 536.60 L 462.10 543.40 L 467.50 549.80 L 473.20 556.00 L 479.30 561.80 L 485.70 567.20 L 492.50 572.20 L 499.60 576.80 L 505.70 580.20 L 511.90 583.10 L 518.30 585.70 L 528.10 589.00 L 558.20 597.00 L 557.30 602.50 L 542.60 603.20 L 528.00 603.40 L 513.30 603.10 L 498.60 602.30 L 491.40 601.40 L 462.60 595.20 L 455.40 594.50 L 450.60 594.50 L 445.80 595.00 L 440.90 596.00 L 436.30 597.10 L 432.00 598.50 L 427.80 600.30 L 423.70 602.50 L 416.30 607.90 L 409.90 614.50 L 407.10 618.20 L 402.40 626.10 L 400.50 630.30 L 397.80 638.00 L 395.80 645.80 L 394.30 653.70 L 393.40 661.80 L 392.90 669.80 L 392.90 678.00 L 393.40 690.20 L 394.60 702.20 L 395.60 709.00 L 397.20 715.60 L 399.40 722.10 L 402.20 728.40 L 405.40 734.30 L 409.20 740.10 L 413.40 745.50 L 418.00 750.50 L 423.10 755.10 L 428.50 759.20 L 434.30 762.90 L 440.40 766.10 L 447.50 769.20 L 454.80 771.80 L 462.20 774.00 L 469.70 775.70 L 477.30 777.00 L 492.70 778.50 L 500.50 778.70 L 510.80 778.40 L 521.10 777.60 L 539.60 775.00 L 555.80 771.30 L 567.80 767.70 L 579.60 763.50 L 603.00 754.50 L 605.00 774.20 L 605.20 781.90 L 603.40 791.20 L 598.90 807.80 L 598.00 815.40 L 598.10 819.30 L 607.40 814.50 L 611.70 811.60 L 615.60 808.20 L 628.90 795.40 L 635.30 788.70 L 645.30 777.00 L 652.30 766.90 L 655.20 761.60 L 657.80 756.00 L 660.00 750.20 L 656.40 747.90 L 652.70 746.30 L 648.70 745.20 L 640.50 744.40 L 636.30 744.60 L 639.30 743.00 L 642.20 742.10 L 645.20 741.70 L 648.20 741.80 L 651.20 742.40 L 654.00 743.40 L 656.70 744.90 L 659.10 746.60 L 661.30 748.70 L 663.20 751.10 L 664.70 753.70 L 665.80 756.60 L 666.40 759.50 L 666.50 762.60 L 666.10 765.80 L 664.20 771.60 L 661.90 777.00 L 659.20 782.20 L 652.60 792.10 L 648.90 796.70 L 642.80 803.30 L 629.60 815.60 L 622.90 821.20 L 610.80 830.10 L 606.50 832.80 L 602.10 835.10 L 597.50 837.00 L 591.10 838.30 L 587.70 838.50 L 582.20 836.90 L 577.00 834.70 L 572.00 832.10 L 567.20 829.00 L 558.10 822.10 L 545.50 810.60 L 545.60 807.60 L 569.30 792.60 L 576.50 786.80 L 581.50 781.20 L 570.50 785.70 L 559.40 789.90 L 548.10 793.80 L 536.70 797.10 L 525.10 799.90 L 513.40 802.00 L 504.60 803.10 L 495.80 803.70 L 486.80 803.80 L 477.90 803.50 L 468.90 802.30 L 459.80 800.60 L 450.80 798.40 L 442.00 795.70 L 433.30 792.50 L 424.90 788.80 L 412.80 782.10 L 401.50 774.20 L 396.30 769.80 L 391.40 765.00 L 386.80 759.90 L 382.50 754.40 L 379.60 750.30 L 370.70 732.60 L 367.90 728.60 L 361.30 726.90 L 340.40 722.60 L 333.50 720.90 L 326.80 718.80 L 318.30 715.20 L 314.40 712.90 L 310.60 710.20 L 307.10 707.20 L 303.80 703.60 L 301.10 698.80 L 298.80 693.70 L 297.00 688.30 L 295.70 682.80 L 294.90 677.30 L 294.60 671.60 L 294.80 666.00 L 295.70 660.50 L 297.10 655.10 L 298.60 651.30 L 300.50 647.60 L 302.80 644.10 L 305.40 640.70 L 306.60 644.10 L 308.20 647.30 L 310.10 650.10 L 313.40 654.00 L 317.20 657.50 L 329.70 667.20 L 343.90 679.10 L 347.60 681.40 L 350.20 682.60 L 353.00 683.30 L 356.50 683.80 L 361.10 686.30 L 363.70 686.30 L 362.70 679.40 L 362.10 672.60 L 362.00 665.80 L 362.40 658.90 L 363.20 652.10 L 364.50 645.40 L 366.20 638.80 L 368.30 632.20 L 370.70 625.80 L 373.60 619.50 L 376.80 613.50 L 380.40 607.60 L 384.30 601.90 L 388.60 596.50 L 393.10 591.30 L 398.00 586.50 L 403.20 581.90 L 408.60 577.70 L 414.20 573.90 L 420.10 570.40 L 424.30 569.60 L 426.20 569.70 L 429.10 570.60 L 431.90 571.90 L 442.60 578.50 L 461.20 587.20 L 470.80 591.10 L 480.50 594.50 L 490.30 597.30 L 500.40 599.60 L 499.50 596.60 L 497.00 594.30 L 482.20 586.80 L 473.30 581.90 L 464.70 576.50 L 456.30 570.70 L 448.30 564.50 L 440.70 557.80 L 430.10 546.90 L 420.70 535.10 L 416.50 528.80 L 412.60 522.30 L 409.20 515.50 L 403.10 501.30 L 400.60 494.00 L 398.50 486.50 L 396.90 479.00 L 395.80 471.30 L 395.20 463.60 L 395.00 455.90 L 395.20 448.10 L 395.90 440.40 L 397.00 432.70 L 398.60 425.20 L 403.10 409.00 L 409.30 391.90 L 412.90 383.60 L 416.90 375.50 L 421.30 367.50 L 426.10 359.80 L 431.40 352.40 L 437.10 345.30 L 445.20 347.10 L 453.50 348.30 L 457.60 348.40 L 461.80 348.10 L 460.40 345.90 L 457.00 342.50 L 454.00 340.50 L 443.80 335.80 L 440.50 333.90 L 437.60 331.70 Z" fill="#d6bcb9" fill-rule="nonzero" node-id="69" stroke="none" target-height="506.8" target-width="371.9" target-x="294.6" target-y="331.7"></path><path d="M 600.80 406.40 L 603.80 403.70 L 610.50 399.30 L 614.20 397.70 L 619.20 395.90 L 624.50 394.80 L 629.80 394.20 L 635.30 394.20 L 640.60 394.70 L 645.80 395.80 L 648.90 396.90 L 655.10 400.20 L 657.70 402.30 L 659.30 404.00 L 661.40 407.70 L 662.00 409.80 L 662.20 412.10 L 661.90 414.60 L 657.10 414.40 L 654.70 411.80 L 652.20 409.60 L 649.40 407.70 L 644.90 405.40 L 640.20 403.50 L 636.20 403.20 L 628.60 403.80 L 621.20 405.80 L 614.50 409.10 L 608.50 413.80 L 605.90 416.50 L 603.60 419.60 L 601.50 423.00 L 599.00 422.80 L 597.30 419.20 L 596.90 417.20 L 597.10 413.30 L 598.30 409.50 L 600.80 406.40 Z" fill="#661f13" fill-rule="nonzero" node-id="71" stroke="none" target-height="28.799988" target-width="65.29999" target-x="596.9" target-y="394.2"></path><path d="M 599.00 422.80 L 606.60 423.50 L 627.70 423.80 L 636.20 425.20 L 642.70 427.70 L 645.80 429.80 L 648.30 432.20 L 650.50 435.00 L 652.20 438.10 L 653.50 441.40 L 654.40 444.90 L 655.10 452.00 L 654.20 459.30 L 651.90 465.90 L 649.90 469.20 L 645.20 474.80 L 638.40 480.20 L 634.20 482.80 L 629.70 485.10 L 622.70 488.10 L 615.80 490.60 L 597.40 495.40 L 591.20 496.60 L 578.60 497.80 L 572.40 497.80 L 566.10 497.10 L 559.90 495.80 L 556.50 494.70 L 549.80 491.40 L 546.70 489.30 L 544.00 486.90 L 541.70 484.10 L 539.10 479.50 L 538.30 476.90 L 537.80 474.00 L 538.10 470.00 L 538.90 466.30 L 540.10 462.70 L 543.90 456.10 L 546.30 453.10 L 550.40 448.90 L 554.90 445.20 L 559.80 441.90 L 568.90 436.80 L 591.00 427.90 L 595.10 425.60 L 599.00 422.80 Z" fill="#f1cdce" fill-rule="nonzero" node-id="73" stroke="none" target-height="75" target-width="117.29999" target-x="537.8" target-y="422.8"></path><path d="M 705.40 423.50 L 729.00 423.90 L 740.70 423.00 L 729.60 432.60 L 725.40 435.10 L 723.20 435.90 L 716.70 428.10 L 705.40 423.50 Z" fill="#8b524e" fill-rule="nonzero" node-id="75" stroke="none" target-height="12.899994" target-width="35.299988" target-x="705.4" target-y="423"></path><path d="M 705.40 423.50 L 716.70 428.10 L 723.20 435.90 L 725.40 435.10 L 729.60 432.60 L 740.70 423.00 L 741.20 425.40 L 741.20 427.80 L 740.80 430.00 L 739.00 434.10 L 737.50 436.00 L 734.00 439.00 L 731.90 440.20 L 729.70 441.10 L 725.20 442.00 L 724.30 449.00 L 724.60 453.80 L 725.40 455.70 L 726.30 456.70 L 727.60 457.50 L 732.10 458.70 L 737.40 458.70 L 742.40 457.40 L 744.80 456.30 L 748.20 454.20 L 751.40 451.70 L 750.70 457.00 L 750.00 459.60 L 746.40 467.20 L 737.50 488.40 L 735.00 493.50 L 732.20 498.50 L 728.80 503.20 L 729.20 496.80 L 731.20 489.20 L 738.70 471.50 L 740.30 467.10 L 724.10 464.20 L 716.00 463.80 L 713.80 465.60 L 705.40 473.80 L 701.40 476.20 L 697.50 476.90 L 691.80 475.70 L 675.00 471.20 L 682.30 454.40 L 691.50 456.90 L 696.50 457.90 L 701.40 458.30 L 704.70 458.30 L 710.90 457.10 L 713.70 455.90 L 716.30 454.10 L 718.70 451.70 L 719.50 449.30 L 719.70 447.20 L 718.80 443.50 L 716.50 440.00 L 709.40 432.50 L 707.40 429.80 L 706.40 427.90 L 705.70 425.80 L 705.40 423.50 Z M 690.90 464.40 L 689.90 470.50 L 695.30 470.00 L 697.80 469.40 L 700.10 468.30 L 701.30 467.30 L 703.30 464.10 L 690.90 464.40 Z" fill="#661e20" fill-rule="nonzero" node-id="77" stroke="none" target-height="80.20001" target-width="76.400024" target-x="675" target-y="423"></path><path d="M 716.00 463.80 L 724.10 464.20 L 740.30 467.10 L 738.70 471.50 L 731.20 489.20 L 729.20 496.80 L 728.80 503.20 L 723.40 510.60 L 717.50 517.70 L 711.10 524.40 L 706.00 529.20 L 700.60 533.50 L 695.00 537.60 L 689.20 541.30 L 684.90 543.50 L 680.30 545.30 L 675.60 546.60 L 670.80 547.20 L 667.60 547.20 L 661.40 546.10 L 658.50 545.00 L 655.80 543.30 L 653.10 541.10 L 651.60 537.10 L 650.70 533.10 L 650.40 529.10 L 650.60 525.00 L 651.20 521.00 L 652.30 517.00 L 654.30 511.10 L 659.40 499.60 L 674.40 471.10 L 691.80 475.70 L 697.50 476.90 L 699.60 476.70 L 703.00 475.40 L 705.40 473.80 L 713.80 465.60 L 716.00 463.80 Z M 661.10 524.20 L 659.60 525.60 L 657.90 528.70 L 657.60 532.30 L 657.90 534.10 L 658.50 535.90 L 660.50 538.90 L 663.50 540.90 L 665.50 541.40 L 669.70 541.00 L 673.80 540.20 L 681.70 537.40 L 689.20 533.40 L 694.40 529.80 L 699.30 525.90 L 695.60 521.30 L 691.10 517.70 L 683.50 513.90 L 681.20 513.40 L 679.00 513.40 L 676.80 513.70 L 672.50 515.50 L 666.50 519.70 L 661.10 524.20 Z" fill="#791d26" fill-rule="nonzero" node-id="79" stroke="none" target-height="83.400024" target-width="89.89996" target-x="650.4" target-y="463.8"></path><path d="M 661.10 524.20 L 666.50 519.70 L 672.50 515.50 L 676.80 513.70 L 679.00 513.40 L 681.20 513.40 L 683.50 513.90 L 691.10 517.70 L 695.60 521.30 L 699.30 525.90 L 694.40 529.80 L 689.20 533.40 L 681.70 537.40 L 673.80 540.20 L 669.70 541.00 L 665.50 541.40 L 663.50 540.90 L 660.50 538.90 L 658.50 535.90 L 657.90 534.10 L 657.60 532.30 L 657.90 528.70 L 659.60 525.60 L 661.10 524.20 Z" fill="#dc8795" fill-rule="nonzero" node-id="81" stroke="none" target-height="28" target-width="41.700012" target-x="657.6" target-y="513.4"></path><path d="M 341.00 551.40 L 350.70 551.60 L 355.50 552.20 L 363.30 554.40 L 369.00 557.40 L 362.70 557.80 L 357.30 562.30 L 351.00 553.90 L 344.00 554.30 L 340.10 554.80 L 336.60 555.70 L 334.30 556.60 L 332.50 557.90 L 331.00 559.40 L 329.60 562.20 L 329.10 571.00 L 329.50 575.30 L 330.40 579.50 L 332.00 583.50 L 333.90 587.30 L 336.30 590.90 L 342.20 597.30 L 345.50 600.10 L 349.10 602.70 L 356.70 606.90 L 364.00 604.20 L 354.40 624.00 L 349.80 622.50 L 336.40 617.30 L 332.40 616.60 L 324.40 616.40 L 312.30 617.50 L 310.50 613.60 L 309.00 609.70 L 308.00 605.80 L 307.40 601.70 L 307.10 596.20 L 307.50 590.70 L 308.50 585.30 L 310.10 580.00 L 312.20 575.00 L 314.90 570.30 L 319.90 563.80 L 326.00 558.30 L 329.40 556.10 L 333.00 554.20 L 336.90 552.60 L 341.00 551.40 Z" fill="#ccb4b3" fill-rule="nonzero" node-id="83" stroke="none" target-height="72.599976" target-width="61.899994" target-x="307.1" target-y="551.4"></path><path d="M 329.30 566.40 L 329.30 564.10 L 330.10 560.70 L 332.50 557.90 L 334.30 556.60 L 336.60 555.70 L 340.10 554.80 L 344.00 554.30 L 351.00 553.90 L 357.30 562.30 L 362.70 557.80 L 369.00 557.40 L 372.10 559.40 L 375.00 561.70 L 380.00 567.10 L 384.10 573.30 L 384.80 575.20 L 384.80 576.90 L 383.40 579.90 L 374.60 589.70 L 370.90 594.40 L 364.00 604.20 L 356.70 606.90 L 349.10 602.70 L 345.50 600.10 L 342.20 597.30 L 336.30 590.90 L 333.90 587.30 L 332.00 583.50 L 330.40 579.50 L 329.50 575.30 L 329.10 571.00 L 329.30 566.40 Z" fill="#f9f7f3" fill-rule="nonzero" node-id="85" stroke="none" target-height="53" target-width="55.69998" target-x="329.1" target-y="553.9"></path><path d="M 608.70 596.90 L 651.80 587.50 L 666.10 583.90 L 659.70 587.90 L 656.30 589.40 L 651.00 591.10 L 622.90 596.60 L 634.60 600.40 L 622.40 601.80 L 610.20 602.10 L 608.70 596.90 Z" fill="#723229" fill-rule="nonzero" node-id="87" stroke="none" target-height="18.199951" target-width="57.399963" target-x="608.7" target-y="583.9"></path><path d="M 224.10 650.80 L 225.60 648.80 L 227.10 647.50 L 228.90 646.60 L 233.00 646.00 L 235.30 646.10 L 238.70 646.70 L 248.40 649.20 L 248.50 654.50 L 224.10 650.80 Z" fill="#94543a" fill-rule="nonzero" node-id="89" stroke="none" target-height="8.5" target-width="24.399994" target-x="224.1" target-y="646"></path><path d="M 529.70 650.50 L 538.90 651.30 L 566.30 655.70 L 575.50 656.80 L 633.10 659.90 L 642.80 660.00 L 649.20 659.70 L 655.60 659.10 L 681.30 655.40 L 676.60 657.50 L 671.80 659.20 L 666.90 660.50 L 659.40 662.00 L 628.70 666.70 L 620.60 667.70 L 600.20 669.00 L 588.00 669.10 L 563.50 668.50 L 565.50 670.40 L 567.80 671.90 L 570.20 673.00 L 574.10 674.10 L 578.20 674.70 L 596.00 676.60 L 605.60 677.00 L 634.50 677.20 L 644.10 677.60 L 638.70 697.60 L 628.30 695.80 L 618.00 693.50 L 607.90 690.80 L 592.80 686.10 L 577.90 680.90 L 545.50 668.30 L 540.10 665.30 L 535.50 661.30 L 531.90 656.40 L 530.70 653.60 L 529.70 650.50 Z" fill="#d6c1bf" fill-rule="nonzero" node-id="91" stroke="none" target-height="47.099976" target-width="151.59998" target-x="529.7" target-y="650.5"></path><path d="M 222.20 681.50 L 226.70 676.50 L 229.20 674.30 L 231.90 672.60 L 233.90 671.80 L 238.40 671.10 L 236.70 675.40 L 231.90 683.50 L 231.20 685.60 L 231.00 688.00 L 232.50 691.00 L 234.40 693.70 L 243.70 703.40 L 238.00 702.40 L 235.20 701.40 L 232.60 700.10 L 227.90 696.90 L 226.00 694.90 L 224.40 692.60 L 223.10 690.20 L 222.30 687.50 L 222.00 684.70 L 222.20 681.50 Z" fill="#742d16" fill-rule="nonzero" node-id="93" stroke="none" target-height="32.30005" target-width="21.699997" target-x="222" target-y="671.1"></path><path d="M 699.00 707.00 L 714.80 701.50 L 720.40 699.90 L 726.00 698.80 L 731.50 698.30 L 735.10 698.40 L 738.50 699.00 L 741.90 700.00 L 745.00 701.60 L 748.10 703.80 L 751.10 706.80 L 751.20 717.00 L 750.60 720.30 L 748.90 724.40 L 745.30 729.00 L 742.90 731.20 L 740.20 733.10 L 735.90 735.50 L 719.10 742.90 L 713.70 746.60 L 713.90 741.40 L 728.00 731.60 L 732.40 728.10 L 737.70 722.70 L 739.90 719.60 L 740.70 717.20 L 741.00 715.10 L 740.80 713.10 L 740.20 711.20 L 738.10 707.90 L 734.90 705.40 L 731.00 703.90 L 726.70 703.40 L 733.80 712.80 L 735.80 716.30 L 735.90 718.00 L 735.10 721.00 L 732.40 725.00 L 729.00 728.50 L 725.60 720.10 L 724.50 718.10 L 723.00 716.40 L 720.50 714.90 L 715.20 712.90 L 711.10 712.20 L 706.80 711.80 L 698.30 711.60 L 699.00 707.00 Z" fill="#73250b" fill-rule="nonzero" node-id="95" stroke="none" target-height="48.299988" target-width="52.900024" target-x="698.3" target-y="698.3"></path><path d="M 230.80 819.70 L 234.70 816.70 L 238.90 814.10 L 243.30 812.00 L 252.70 808.90 L 262.50 807.20 L 272.60 806.80 L 280.10 807.20 L 287.30 808.20 L 299.20 812.00 L 310.90 817.00 L 316.50 820.00 L 322.00 823.30 L 327.10 826.90 L 331.90 830.90 L 336.50 835.30 L 340.60 840.00 L 344.20 845.10 L 347.40 850.70 L 341.30 850.80 L 334.10 844.20 L 321.20 833.60 L 310.00 826.30 L 304.20 823.20 L 298.20 820.50 L 292.00 818.30 L 287.30 817.10 L 277.60 815.60 L 272.50 815.50 L 284.30 820.90 L 290.00 824.10 L 295.50 827.70 L 300.60 831.70 L 305.30 836.00 L 308.60 839.60 L 311.50 843.50 L 314.00 847.70 L 319.90 860.40 L 320.50 862.60 L 320.50 864.70 L 319.60 867.30 L 318.50 868.60 L 315.60 865.00 L 305.20 849.70 L 302.00 846.20 L 294.50 839.20 L 286.10 833.40 L 280.10 830.20 L 273.80 827.50 L 267.30 825.30 L 260.60 823.70 L 253.90 822.40 L 247.10 821.70 L 236.00 821.20 L 233.40 820.70 L 230.80 819.70 Z" fill="#79250d" fill-rule="nonzero" node-id="97" stroke="none" target-height="61.799988" target-width="116.59999" target-x="230.8" target-y="806.8"></path><path d="M 694.40 854.80 L 702.80 852.10 L 711.40 850.90 L 720.10 851.10 L 728.60 852.70 L 736.80 855.80 L 740.60 857.80 L 746.00 861.30 L 748.10 864.30 L 750.20 869.70 L 725.10 867.20 L 718.80 867.10 L 712.50 867.60 L 709.40 868.70 L 700.70 873.40 L 697.70 874.60 L 694.50 875.40 L 695.20 872.60 L 696.20 870.30 L 697.60 868.30 L 701.10 865.20 L 703.30 864.10 L 706.80 862.70 L 710.70 861.80 L 726.00 860.00 L 725.80 858.30 L 720.00 858.10 L 714.30 858.40 L 708.80 859.20 L 697.90 861.90 L 676.80 869.90 L 678.10 865.90 L 679.10 864.30 L 681.10 862.10 L 686.10 858.70 L 694.40 854.80 Z" fill="#934c29" fill-rule="nonzero" node-id="99" stroke="none" target-height="24.5" target-width="73.400024" target-x="676.8" target-y="850.9"></path></svg>